<svg width="168" height="48" viewBox="0 0 168 48" fill="none" xmlns="http://www.w3.org/2000/svg">
<path d="M0.292893 23.2929C-0.097631 23.6834 -0.0976311 24.3166 0.292893 24.7071L6.65685 31.0711C7.04738 31.4616 7.68054 31.4616 8.07107 31.0711C8.46159 30.6805 8.46159 30.0474 8.07107 29.6569L2.41421 24L8.07107 18.3431C8.46159 17.9526 8.46159 17.3195 8.07107 16.9289C7.68054 16.5384 7.04738 16.5384 6.65685 16.9289L0.292893 23.2929ZM1 25L25 25L25 23L1 23L1 25Z" fill="white"/>
<path d="M41.0795 6H40.0227C39.9602 5.69602 39.8509 5.42898 39.6946 5.19886C39.5412 4.96875 39.3537 4.77557 39.1321 4.61932C38.9134 4.46023 38.6705 4.34091 38.4034 4.26136C38.1364 4.18182 37.858 4.14205 37.5682 4.14205C37.0398 4.14205 36.5611 4.27557 36.1321 4.54261C35.706 4.80966 35.3665 5.20312 35.1136 5.72301C34.8636 6.2429 34.7386 6.88068 34.7386 7.63636C34.7386 8.39205 34.8636 9.02983 35.1136 9.54972C35.3665 10.0696 35.706 10.4631 36.1321 10.7301C36.5611 10.9972 37.0398 11.1307 37.5682 11.1307C37.858 11.1307 38.1364 11.0909 38.4034 11.0114C38.6705 10.9318 38.9134 10.8139 39.1321 10.6577C39.3537 10.4986 39.5412 10.304 39.6946 10.0739C39.8509 9.84091 39.9602 9.57386 40.0227 9.27273H41.0795C41 9.71875 40.8551 10.1179 40.6449 10.4702C40.4347 10.8224 40.1733 11.1222 39.8608 11.3693C39.5483 11.6136 39.1974 11.7997 38.8082 11.9276C38.4219 12.0554 38.0085 12.1193 37.5682 12.1193C36.8239 12.1193 36.1619 11.9375 35.5824 11.5739C35.0028 11.2102 34.5469 10.6932 34.2145 10.0227C33.8821 9.35227 33.7159 8.55682 33.7159 7.63636C33.7159 6.71591 33.8821 5.92045 34.2145 5.25C34.5469 4.57955 35.0028 4.0625 35.5824 3.69886C36.1619 3.33523 36.8239 3.15341 37.5682 3.15341C38.0085 3.15341 38.4219 3.21733 38.8082 3.34517C39.1974 3.47301 39.5483 3.66051 39.8608 3.90767C40.1733 4.15199 40.4347 4.45028 40.6449 4.80256C40.8551 5.15199 41 5.55114 41.0795 6ZM45.31 12.1364C44.7191 12.1364 44.2006 11.9957 43.7546 11.7145C43.3114 11.4332 42.9648 11.0398 42.7148 10.5341C42.4677 10.0284 42.3441 9.4375 42.3441 8.76136C42.3441 8.07955 42.4677 7.48437 42.7148 6.97585C42.9648 6.46733 43.3114 6.07244 43.7546 5.79119C44.2006 5.50994 44.7191 5.36932 45.31 5.36932C45.9009 5.36932 46.418 5.50994 46.8612 5.79119C47.3072 6.07244 47.6538 6.46733 47.9009 6.97585C48.1509 7.48437 48.2759 8.07955 48.2759 8.76136C48.2759 9.4375 48.1509 10.0284 47.9009 10.5341C47.6538 11.0398 47.3072 11.4332 46.8612 11.7145C46.418 11.9957 45.9009 12.1364 45.31 12.1364ZM45.31 11.233C45.7589 11.233 46.1282 11.1179 46.418 10.8878C46.7077 10.6577 46.9222 10.3551 47.0614 9.98011C47.2006 9.60511 47.2702 9.19886 47.2702 8.76136C47.2702 8.32386 47.2006 7.91619 47.0614 7.53835C46.9222 7.16051 46.7077 6.85511 46.418 6.62216C46.1282 6.3892 45.7589 6.27273 45.31 6.27273C44.8612 6.27273 44.4918 6.3892 44.2021 6.62216C43.9123 6.85511 43.6978 7.16051 43.5586 7.53835C43.4194 7.91619 43.3498 8.32386 43.3498 8.76136C43.3498 9.19886 43.4194 9.60511 43.5586 9.98011C43.6978 10.3551 43.9123 10.6577 44.2021 10.8878C44.4918 11.1179 44.8612 11.233 45.31 11.233ZM50.8168 8.0625V12H49.8111V5.45455H50.7827V6.47727H50.8679C51.0213 6.14489 51.2543 5.87784 51.5668 5.67614C51.8793 5.47159 52.2827 5.36932 52.777 5.36932C53.2202 5.36932 53.608 5.46023 53.9403 5.64205C54.2727 5.82102 54.5313 6.09375 54.7159 6.46023C54.9006 6.82386 54.9929 7.28409 54.9929 7.84091V12H53.9872V7.90909C53.9872 7.39489 53.8537 6.99432 53.5866 6.70739C53.3196 6.41761 52.9531 6.27273 52.4872 6.27273C52.1662 6.27273 51.8793 6.34233 51.6264 6.48153C51.3764 6.62074 51.179 6.82386 51.0341 7.09091C50.8892 7.35795 50.8168 7.68182 50.8168 8.0625ZM59.4897 12.1364C58.8761 12.1364 58.3477 11.9915 57.9045 11.7017C57.4613 11.4119 57.1204 11.0128 56.8817 10.5043C56.6431 9.99574 56.5238 9.41477 56.5238 8.76136C56.5238 8.09659 56.646 7.50994 56.8903 7.00142C57.1374 6.49006 57.4812 6.09091 57.9215 5.80398C58.3647 5.5142 58.8817 5.36932 59.4727 5.36932C59.9329 5.36932 60.3477 5.45455 60.717 5.625C61.0863 5.79545 61.3888 6.03409 61.6246 6.34091C61.8604 6.64773 62.0067 7.00568 62.0636 7.41477H61.0579C60.9812 7.11648 60.8107 6.85227 60.5465 6.62216C60.2852 6.3892 59.9329 6.27273 59.4897 6.27273C59.0977 6.27273 58.7539 6.375 58.4585 6.57955C58.1658 6.78125 57.9371 7.06676 57.7724 7.43608C57.6104 7.80256 57.5295 8.23295 57.5295 8.72727C57.5295 9.23295 57.609 9.6733 57.7681 10.0483C57.93 10.4233 58.1573 10.7145 58.4499 10.9219C58.7454 11.1293 59.092 11.233 59.4897 11.233C59.7511 11.233 59.9883 11.1875 60.2013 11.0966C60.4144 11.0057 60.5948 10.875 60.7425 10.7045C60.8903 10.5341 60.9954 10.3295 61.0579 10.0909H62.0636C62.0067 10.4773 61.8661 10.8253 61.6417 11.1349C61.4201 11.4418 61.1261 11.6861 60.7596 11.8679C60.396 12.0469 59.9727 12.1364 59.4897 12.1364ZM66.2781 12.1364C65.6474 12.1364 65.1033 11.9972 64.646 11.7188C64.1914 11.4375 63.8406 11.0455 63.5934 10.5426C63.3491 10.0369 63.2269 9.44886 63.2269 8.77841C63.2269 8.10795 63.3491 7.51705 63.5934 7.00568C63.8406 6.49148 64.1843 6.09091 64.6246 5.80398C65.0678 5.5142 65.5849 5.36932 66.1758 5.36932C66.5167 5.36932 66.8533 5.42614 67.1857 5.53977C67.5181 5.65341 67.8207 5.83807 68.0934 6.09375C68.3661 6.34659 68.5835 6.68182 68.7454 7.09943C68.9073 7.51705 68.9883 8.03125 68.9883 8.64205V9.06818H63.9428V8.19886H67.9656C67.9656 7.82955 67.8917 7.5 67.744 7.21023C67.5991 6.92045 67.3917 6.69176 67.1218 6.52415C66.8548 6.35653 66.5394 6.27273 66.1758 6.27273C65.7752 6.27273 65.4286 6.37216 65.136 6.57102C64.8462 6.76705 64.6232 7.02273 64.467 7.33807C64.3107 7.65341 64.2326 7.99148 64.2326 8.35227V8.93182C64.2326 9.42614 64.3178 9.84517 64.4883 10.1889C64.6616 10.5298 64.9016 10.7898 65.2085 10.9688C65.5153 11.1449 65.8718 11.233 66.2781 11.233C66.5423 11.233 66.7809 11.196 66.994 11.1222C67.2099 11.0455 67.396 10.9318 67.5522 10.7812C67.7085 10.6278 67.8292 10.4375 67.9144 10.2102L68.886 10.483C68.7837 10.8125 68.6119 11.1023 68.3704 11.3523C68.1289 11.5994 67.8306 11.7926 67.4755 11.9318C67.1204 12.0682 66.7212 12.1364 66.2781 12.1364ZM70.5181 14.4545V5.45455H71.4897V6.49432H71.609C71.6829 6.38068 71.7852 6.2358 71.9158 6.05966C72.0494 5.88068 72.2397 5.72159 72.4869 5.58239C72.7369 5.44034 73.0749 5.36932 73.5011 5.36932C74.0522 5.36932 74.538 5.5071 74.9585 5.78267C75.3789 6.05824 75.707 6.44886 75.9428 6.95455C76.1786 7.46023 76.2965 8.05682 76.2965 8.74432C76.2965 9.4375 76.1786 10.0384 75.9428 10.5469C75.707 11.0526 75.3803 11.4446 74.9627 11.723C74.5451 11.9986 74.0636 12.1364 73.5181 12.1364C73.0977 12.1364 72.761 12.0668 72.5082 11.9276C72.2553 11.7855 72.0607 11.625 71.9244 11.446C71.788 11.2642 71.6829 11.1136 71.609 10.9943H71.5238V14.4545H70.5181ZM71.5067 8.72727C71.5067 9.22159 71.5792 9.65767 71.7241 10.0355C71.869 10.4105 72.0806 10.7045 72.359 10.9176C72.6374 11.1278 72.9783 11.233 73.3817 11.233C73.8022 11.233 74.1531 11.1222 74.4343 10.9006C74.7184 10.6761 74.9315 10.375 75.0735 9.99716C75.2184 9.61648 75.2908 9.19318 75.2908 8.72727C75.2908 8.26705 75.2198 7.85227 75.0778 7.48295C74.9386 7.1108 74.7269 6.81676 74.4428 6.60085C74.1616 6.3821 73.8079 6.27273 73.3817 6.27273C72.9727 6.27273 72.6289 6.37642 72.3505 6.58381C72.0721 6.78835 71.8619 7.07528 71.7198 7.4446C71.5778 7.81108 71.5067 8.23864 71.5067 8.72727ZM80.6772 5.45455V6.30682H77.2852V5.45455H80.6772ZM78.2738 3.88636H79.2795V10.125C79.2795 10.4091 79.3207 10.6222 79.4031 10.7642C79.4883 10.9034 79.5962 10.9972 79.7269 11.0455C79.8604 11.0909 80.0011 11.1136 80.1488 11.1136C80.2596 11.1136 80.3505 11.108 80.4215 11.0966C80.4925 11.0824 80.5494 11.071 80.592 11.0625L80.7965 11.9659C80.7283 11.9915 80.6332 12.017 80.511 12.0426C80.3888 12.071 80.234 12.0852 80.0465 12.0852C79.7624 12.0852 79.484 12.0241 79.2113 11.902C78.9414 11.7798 78.717 11.5938 78.538 11.3438C78.3619 11.0938 78.2738 10.7784 78.2738 10.3977V3.88636ZM82.6843 12H81.5763L84.7809 3.27273H85.8718L89.0763 12H87.9684L85.3604 4.65341H85.2923L82.6843 12ZM83.0934 8.59091H87.5593V9.52841H83.0934V8.59091ZM92.7358 5.45455V6.30682H89.3438V5.45455H92.7358ZM90.3324 3.88636H91.3381V10.125C91.3381 10.4091 91.3793 10.6222 91.4616 10.7642C91.5469 10.9034 91.6548 10.9972 91.7855 11.0455C91.919 11.0909 92.0597 11.1136 92.2074 11.1136C92.3182 11.1136 92.4091 11.108 92.4801 11.0966C92.5511 11.0824 92.608 11.071 92.6506 11.0625L92.8551 11.9659C92.7869 11.9915 92.6918 12.017 92.5696 12.0426C92.4474 12.071 92.2926 12.0852 92.1051 12.0852C91.821 12.0852 91.5426 12.0241 91.2699 11.902C91 11.7798 90.7756 11.5938 90.5966 11.3438C90.4205 11.0938 90.3324 10.7784 90.3324 10.3977V3.88636ZM97.0952 5.45455V6.30682H93.7031V5.45455H97.0952ZM94.6918 3.88636H95.6974V10.125C95.6974 10.4091 95.7386 10.6222 95.821 10.7642C95.9063 10.9034 96.0142 10.9972 96.1449 11.0455C96.2784 11.0909 96.419 11.1136 96.5668 11.1136C96.6776 11.1136 96.7685 11.108 96.8395 11.0966C96.9105 11.0824 96.9673 11.071 97.0099 11.0625L97.2145 11.9659C97.1463 11.9915 97.0511 12.017 96.929 12.0426C96.8068 12.071 96.652 12.0852 96.4645 12.0852C96.1804 12.0852 95.902 12.0241 95.6293 11.902C95.3594 11.7798 95.1349 11.5938 94.956 11.3438C94.7798 11.0938 94.6918 10.7784 94.6918 10.3977V3.88636ZM101.282 12.1364C100.651 12.1364 100.107 11.9972 99.6499 11.7188C99.1953 11.4375 98.8445 11.0455 98.5973 10.5426C98.353 10.0369 98.2308 9.44886 98.2308 8.77841C98.2308 8.10795 98.353 7.51705 98.5973 7.00568C98.8445 6.49148 99.1882 6.09091 99.6286 5.80398C100.072 5.5142 100.589 5.36932 101.18 5.36932C101.521 5.36932 101.857 5.42614 102.19 5.53977C102.522 5.65341 102.825 5.83807 103.097 6.09375C103.37 6.34659 103.587 6.68182 103.749 7.09943C103.911 7.51705 103.992 8.03125 103.992 8.64205V9.06818H98.9467V8.19886H102.969C102.969 7.82955 102.896 7.5 102.748 7.21023C102.603 6.92045 102.396 6.69176 102.126 6.52415C101.859 6.35653 101.543 6.27273 101.18 6.27273C100.779 6.27273 100.433 6.37216 100.14 6.57102C99.8501 6.76705 99.6271 7.02273 99.4709 7.33807C99.3146 7.65341 99.2365 7.99148 99.2365 8.35227V8.93182C99.2365 9.42614 99.3217 9.84517 99.4922 10.1889C99.6655 10.5298 99.9055 10.7898 100.212 10.9688C100.519 11.1449 100.876 11.233 101.282 11.233C101.546 11.233 101.785 11.196 101.998 11.1222C102.214 11.0455 102.4 10.9318 102.556 10.7812C102.712 10.6278 102.833 10.4375 102.918 10.2102L103.89 10.483C103.788 10.8125 103.616 11.1023 103.374 11.3523C103.133 11.5994 102.835 11.7926 102.479 11.9318C102.124 12.0682 101.725 12.1364 101.282 12.1364ZM106.528 8.0625V12H105.522V5.45455H106.494V6.47727H106.579C106.732 6.14489 106.965 5.87784 107.278 5.67614C107.59 5.47159 107.994 5.36932 108.488 5.36932C108.931 5.36932 109.319 5.46023 109.651 5.64205C109.984 5.82102 110.242 6.09375 110.427 6.46023C110.612 6.82386 110.704 7.28409 110.704 7.84091V12H109.698V7.90909C109.698 7.39489 109.565 6.99432 109.298 6.70739C109.031 6.41761 108.664 6.27273 108.198 6.27273C107.877 6.27273 107.59 6.34233 107.337 6.48153C107.087 6.62074 106.89 6.82386 106.745 7.09091C106.6 7.35795 106.528 7.68182 106.528 8.0625ZM115.388 5.45455V6.30682H111.996V5.45455H115.388ZM112.985 3.88636H113.99V10.125C113.99 10.4091 114.032 10.6222 114.114 10.7642C114.199 10.9034 114.307 10.9972 114.438 11.0455C114.571 11.0909 114.712 11.1136 114.86 11.1136C114.971 11.1136 115.061 11.108 115.132 11.0966C115.203 11.0824 115.26 11.071 115.303 11.0625L115.507 11.9659C115.439 11.9915 115.344 12.017 115.222 12.0426C115.1 12.071 114.945 12.0852 114.757 12.0852C114.473 12.0852 114.195 12.0241 113.922 11.902C113.652 11.7798 113.428 11.5938 113.249 11.3438C113.073 11.0938 112.985 10.7784 112.985 10.3977V3.88636ZM116.901 12V5.45455H117.907V12H116.901ZM117.412 4.36364C117.216 4.36364 117.047 4.29688 116.905 4.16335C116.766 4.02983 116.696 3.86932 116.696 3.68182C116.696 3.49432 116.766 3.33381 116.905 3.20028C117.047 3.06676 117.216 3 117.412 3C117.608 3 117.776 3.06676 117.915 3.20028C118.057 3.33381 118.128 3.49432 118.128 3.68182C118.128 3.86932 118.057 4.02983 117.915 4.16335C117.776 4.29688 117.608 4.36364 117.412 4.36364ZM122.408 12.1364C121.817 12.1364 121.298 11.9957 120.852 11.7145C120.409 11.4332 120.062 11.0398 119.812 10.5341C119.565 10.0284 119.442 9.4375 119.442 8.76136C119.442 8.07955 119.565 7.48437 119.812 6.97585C120.062 6.46733 120.409 6.07244 120.852 5.79119C121.298 5.50994 121.817 5.36932 122.408 5.36932C122.999 5.36932 123.516 5.50994 123.959 5.79119C124.405 6.07244 124.751 6.46733 124.999 6.97585C125.249 7.48437 125.374 8.07955 125.374 8.76136C125.374 9.4375 125.249 10.0284 124.999 10.5341C124.751 11.0398 124.405 11.4332 123.959 11.7145C123.516 11.9957 122.999 12.1364 122.408 12.1364ZM122.408 11.233C122.857 11.233 123.226 11.1179 123.516 10.8878C123.805 10.6577 124.02 10.3551 124.159 9.98011C124.298 9.60511 124.368 9.19886 124.368 8.76136C124.368 8.32386 124.298 7.91619 124.159 7.53835C124.02 7.16051 123.805 6.85511 123.516 6.62216C123.226 6.3892 122.857 6.27273 122.408 6.27273C121.959 6.27273 121.589 6.3892 121.3 6.62216C121.01 6.85511 120.795 7.16051 120.656 7.53835C120.517 7.91619 120.447 8.32386 120.447 8.76136C120.447 9.19886 120.517 9.60511 120.656 9.98011C120.795 10.3551 121.01 10.6577 121.3 10.8878C121.589 11.1179 121.959 11.233 122.408 11.233ZM127.914 8.0625V12H126.909V5.45455H127.88V6.47727H127.966C128.119 6.14489 128.352 5.87784 128.664 5.67614C128.977 5.47159 129.38 5.36932 129.875 5.36932C130.318 5.36932 130.706 5.46023 131.038 5.64205C131.37 5.82102 131.629 6.09375 131.814 6.46023C131.998 6.82386 132.091 7.28409 132.091 7.84091V12H131.085V7.90909C131.085 7.39489 130.951 6.99432 130.684 6.70739C130.417 6.41761 130.051 6.27273 129.585 6.27273C129.264 6.27273 128.977 6.34233 128.724 6.48153C128.474 6.62074 128.277 6.82386 128.132 7.09091C127.987 7.35795 127.914 7.68182 127.914 8.0625ZM33.9205 29.4545V20.4545H34.892V21.4943H35.0114C35.0852 21.3807 35.1875 21.2358 35.3182 21.0597C35.4517 20.8807 35.642 20.7216 35.8892 20.5824C36.1392 20.4403 36.4773 20.3693 36.9034 20.3693C37.4545 20.3693 37.9403 20.5071 38.3608 20.7827C38.7813 21.0582 39.1094 21.4489 39.3452 21.9545C39.581 22.4602 39.6989 23.0568 39.6989 23.7443C39.6989 24.4375 39.581 25.0384 39.3452 25.5469C39.1094 26.0526 38.7827 26.4446 38.3651 26.723C37.9474 26.9986 37.4659 27.1364 36.9205 27.1364C36.5 27.1364 36.1634 27.0668 35.9105 26.9276C35.6577 26.7855 35.4631 26.625 35.3267 26.446C35.1903 26.2642 35.0852 26.1136 35.0114 25.9943H34.9261V29.4545H33.9205ZM34.9091 23.7273C34.9091 24.2216 34.9815 24.6577 35.1264 25.0355C35.2713 25.4105 35.483 25.7045 35.7614 25.9176C36.0398 26.1278 36.3807 26.233 36.7841 26.233C37.2045 26.233 37.5554 26.1222 37.8366 25.9006C38.1207 25.6761 38.3338 25.375 38.4759 24.9972C38.6207 24.6165 38.6932 24.1932 38.6932 23.7273C38.6932 23.267 38.6222 22.8523 38.4801 22.483C38.3409 22.1108 38.1293 21.8168 37.8452 21.6009C37.5639 21.3821 37.2102 21.2727 36.7841 21.2727C36.375 21.2727 36.0313 21.3764 35.7528 21.5838C35.4744 21.7884 35.2642 22.0753 35.1222 22.4446C34.9801 22.8111 34.9091 23.2386 34.9091 23.7273ZM41.233 27V20.4545H42.2045V21.4432H42.2727C42.392 21.1193 42.608 20.8565 42.9205 20.6548C43.233 20.4531 43.5852 20.3523 43.9773 20.3523C44.0511 20.3523 44.1435 20.3537 44.2543 20.3565C44.3651 20.3594 44.4489 20.3636 44.5057 20.3693V21.392C44.4716 21.3835 44.3935 21.3707 44.2713 21.3537C44.152 21.3338 44.0256 21.3239 43.892 21.3239C43.5739 21.3239 43.2898 21.3906 43.0398 21.5241C42.7926 21.6548 42.5966 21.8366 42.4517 22.0696C42.3097 22.2997 42.2386 22.5625 42.2386 22.858V27H41.233ZM48.1577 27.1364C47.5668 27.1364 47.0483 26.9957 46.6023 26.7145C46.1591 26.4332 45.8125 26.0398 45.5625 25.5341C45.3153 25.0284 45.1918 24.4375 45.1918 23.7614C45.1918 23.0795 45.3153 22.4844 45.5625 21.9759C45.8125 21.4673 46.1591 21.0724 46.6023 20.7912C47.0483 20.5099 47.5668 20.3693 48.1577 20.3693C48.7486 20.3693 49.2656 20.5099 49.7088 20.7912C50.1548 21.0724 50.5014 21.4673 50.7486 21.9759C50.9986 22.4844 51.1236 23.0795 51.1236 23.7614C51.1236 24.4375 50.9986 25.0284 50.7486 25.5341C50.5014 26.0398 50.1548 26.4332 49.7088 26.7145C49.2656 26.9957 48.7486 27.1364 48.1577 27.1364ZM48.1577 26.233C48.6065 26.233 48.9759 26.1179 49.2656 25.8878C49.5554 25.6577 49.7699 25.3551 49.9091 24.9801C50.0483 24.6051 50.1179 24.1989 50.1179 23.7614C50.1179 23.3239 50.0483 22.9162 49.9091 22.5384C49.7699 22.1605 49.5554 21.8551 49.2656 21.6222C48.9759 21.3892 48.6065 21.2727 48.1577 21.2727C47.7088 21.2727 47.3395 21.3892 47.0497 21.6222C46.7599 21.8551 46.5455 22.1605 46.4062 22.5384C46.267 22.9162 46.1974 23.3239 46.1974 23.7614C46.1974 24.1989 46.267 24.6051 46.4062 24.9801C46.5455 25.3551 46.7599 25.6577 47.0497 25.8878C47.3395 26.1179 47.7088 26.233 48.1577 26.233ZM55.1303 27.1364C54.5849 27.1364 54.1033 26.9986 53.6857 26.723C53.2681 26.4446 52.9414 26.0526 52.7056 25.5469C52.4698 25.0384 52.3519 24.4375 52.3519 23.7443C52.3519 23.0568 52.4698 22.4602 52.7056 21.9545C52.9414 21.4489 53.2695 21.0582 53.69 20.7827C54.1104 20.5071 54.5962 20.3693 55.1474 20.3693C55.5735 20.3693 55.9102 20.4403 56.1573 20.5824C56.4073 20.7216 56.5977 20.8807 56.7283 21.0597C56.8619 21.2358 56.9656 21.3807 57.0394 21.4943H57.1246V18.2727H58.1303V27H57.1587V25.9943H57.0394C56.9656 26.1136 56.8604 26.2642 56.7241 26.446C56.5877 26.625 56.3931 26.7855 56.1403 26.9276C55.8874 27.0668 55.5508 27.1364 55.1303 27.1364ZM55.2667 26.233C55.6701 26.233 56.011 26.1278 56.2894 25.9176C56.5678 25.7045 56.7795 25.4105 56.9244 25.0355C57.0692 24.6577 57.1417 24.2216 57.1417 23.7273C57.1417 23.2386 57.0707 22.8111 56.9286 22.4446C56.7866 22.0753 56.5763 21.7884 56.2979 21.5838C56.0195 21.3764 55.6758 21.2727 55.2667 21.2727C54.8406 21.2727 54.4854 21.3821 54.2013 21.6009C53.9201 21.8168 53.7085 22.1108 53.5664 22.483C53.4272 22.8523 53.3576 23.267 53.3576 23.7273C53.3576 24.1932 53.4286 24.6165 53.5707 24.9972C53.7156 25.375 53.9286 25.6761 54.2099 25.9006C54.494 26.1222 54.8462 26.233 55.2667 26.233ZM64.2369 24.3239V20.4545H65.2425V27H64.2369V25.892H64.1687C64.0153 26.2244 63.7766 26.5071 63.4528 26.7401C63.1289 26.9702 62.7198 27.0852 62.2255 27.0852C61.8164 27.0852 61.4528 26.9957 61.1346 26.8168C60.8164 26.6349 60.5664 26.3622 60.3846 25.9986C60.2028 25.6321 60.1119 25.1705 60.1119 24.6136V20.4545H61.1175V24.5455C61.1175 25.0227 61.2511 25.4034 61.5181 25.6875C61.788 25.9716 62.1317 26.1136 62.5494 26.1136C62.7994 26.1136 63.0536 26.0497 63.3121 25.9219C63.5735 25.794 63.7923 25.598 63.9684 25.3338C64.1474 25.0696 64.2369 24.733 64.2369 24.3239ZM69.7436 27.1364C69.13 27.1364 68.6016 26.9915 68.1584 26.7017C67.7152 26.4119 67.3743 26.0128 67.1357 25.5043C66.897 24.9957 66.7777 24.4148 66.7777 23.7614C66.7777 23.0966 66.8999 22.5099 67.1442 22.0014C67.3913 21.4901 67.7351 21.0909 68.1754 20.804C68.6186 20.5142 69.1357 20.3693 69.7266 20.3693C70.1868 20.3693 70.6016 20.4545 70.9709 20.625C71.3402 20.7955 71.6428 21.0341 71.8786 21.3409C72.1143 21.6477 72.2607 22.0057 72.3175 22.4148H71.3118C71.2351 22.1165 71.0646 21.8523 70.8004 21.6222C70.5391 21.3892 70.1868 21.2727 69.7436 21.2727C69.3516 21.2727 69.0078 21.375 68.7124 21.5795C68.4197 21.7812 68.1911 22.0668 68.0263 22.4361C67.8643 22.8026 67.7834 23.233 67.7834 23.7273C67.7834 24.233 67.8629 24.6733 68.022 25.0483C68.1839 25.4233 68.4112 25.7145 68.7038 25.9219C68.9993 26.1293 69.3459 26.233 69.7436 26.233C70.005 26.233 70.2422 26.1875 70.4553 26.0966C70.6683 26.0057 70.8487 25.875 70.9964 25.7045C71.1442 25.5341 71.2493 25.3295 71.3118 25.0909H72.3175C72.2607 25.4773 72.12 25.8253 71.8956 26.1349C71.674 26.4418 71.38 26.6861 71.0135 26.8679C70.6499 27.0469 70.2266 27.1364 69.7436 27.1364ZM76.532 27.1364C75.9013 27.1364 75.3572 26.9972 74.8999 26.7188C74.4453 26.4375 74.0945 26.0455 73.8473 25.5426C73.603 25.0369 73.4808 24.4489 73.4808 23.7784C73.4808 23.108 73.603 22.517 73.8473 22.0057C74.0945 21.4915 74.4382 21.0909 74.8786 20.804C75.3217 20.5142 75.8388 20.3693 76.4297 20.3693C76.7706 20.3693 77.1072 20.4261 77.4396 20.5398C77.772 20.6534 78.0746 20.8381 78.3473 21.0938C78.62 21.3466 78.8374 21.6818 78.9993 22.0994C79.1612 22.517 79.2422 23.0312 79.2422 23.642V24.0682H74.1967V23.1989H78.2195C78.2195 22.8295 78.1456 22.5 77.9979 22.2102C77.853 21.9205 77.6456 21.6918 77.3757 21.5241C77.1087 21.3565 76.7933 21.2727 76.4297 21.2727C76.0291 21.2727 75.6825 21.3722 75.3899 21.571C75.1001 21.767 74.8771 22.0227 74.7209 22.3381C74.5646 22.6534 74.4865 22.9915 74.4865 23.3523V23.9318C74.4865 24.4261 74.5717 24.8452 74.7422 25.1889C74.9155 25.5298 75.1555 25.7898 75.4624 25.9688C75.7692 26.1449 76.1257 26.233 76.532 26.233C76.7962 26.233 77.0348 26.196 77.2479 26.1222C77.4638 26.0455 77.6499 25.9318 77.8061 25.7812C77.9624 25.6278 78.0831 25.4375 78.1683 25.2102L79.1399 25.483C79.0376 25.8125 78.8658 26.1023 78.6243 26.3523C78.3828 26.5994 78.0845 26.7926 77.7294 26.9318C77.3743 27.0682 76.9751 27.1364 76.532 27.1364ZM85.4084 21.9205L84.505 22.1761C84.4482 22.0256 84.3643 21.8793 84.2536 21.7372C84.1456 21.5923 83.9979 21.473 83.8104 21.3793C83.6229 21.2855 83.3828 21.2386 83.0902 21.2386C82.6896 21.2386 82.3558 21.331 82.0888 21.5156C81.8246 21.6974 81.6925 21.929 81.6925 22.2102C81.6925 22.4602 81.7834 22.6577 81.9652 22.8026C82.147 22.9474 82.4311 23.0682 82.8175 23.1648L83.7891 23.4034C84.3743 23.5455 84.8104 23.7628 85.0973 24.0554C85.3842 24.3452 85.5277 24.7187 85.5277 25.1761C85.5277 25.5511 85.4197 25.8864 85.2038 26.1818C84.9908 26.4773 84.6925 26.7102 84.3089 26.8807C83.9254 27.0511 83.4794 27.1364 82.9709 27.1364C82.3033 27.1364 81.7507 26.9915 81.3132 26.7017C80.8757 26.4119 80.5987 25.9886 80.4822 25.4318L81.4368 25.1932C81.5277 25.5455 81.6996 25.8097 81.9524 25.9858C82.2081 26.1619 82.5419 26.25 82.9538 26.25C83.4226 26.25 83.7947 26.1506 84.0703 25.9517C84.3487 25.75 84.4879 25.5085 84.4879 25.2273C84.4879 25 84.4084 24.8097 84.2493 24.6562C84.0902 24.5 83.8459 24.3835 83.5163 24.3068L82.4254 24.0511C81.826 23.9091 81.3857 23.6889 81.1044 23.3906C80.826 23.0895 80.6868 22.7131 80.6868 22.2614C80.6868 21.892 80.7905 21.5653 80.9979 21.2812C81.2081 20.9972 81.4936 20.7741 81.8544 20.6122C82.218 20.4503 82.63 20.3693 83.0902 20.3693C83.7379 20.3693 84.2464 20.5114 84.6158 20.7955C84.9879 21.0795 85.2521 21.4545 85.4084 21.9205ZM90.4165 27V20.4545H91.3881V21.4773H91.4734C91.6097 21.1278 91.8299 20.8565 92.1339 20.6634C92.4379 20.4673 92.8029 20.3693 93.229 20.3693C93.6609 20.3693 94.0202 20.4673 94.3072 20.6634C94.5969 20.8565 94.8228 21.1278 94.9847 21.4773H95.0529C95.2205 21.1392 95.4719 20.8707 95.8072 20.6719C96.1424 20.4702 96.5444 20.3693 97.0131 20.3693C97.5984 20.3693 98.0771 20.5526 98.4492 20.919C98.8214 21.2827 99.0075 21.8494 99.0075 22.6193V27H98.0018V22.6193C98.0018 22.1364 97.8697 21.7912 97.6055 21.5838C97.3413 21.3764 97.0302 21.2727 96.6722 21.2727C96.212 21.2727 95.8555 21.4119 95.6026 21.6903C95.3498 21.9659 95.2234 22.3153 95.2234 22.7386V27H94.2006V22.517C94.2006 22.1449 94.0799 21.8452 93.8384 21.6179C93.5969 21.3878 93.2859 21.2727 92.9052 21.2727C92.6438 21.2727 92.3995 21.3423 92.1722 21.4815C91.9478 21.6207 91.766 21.8139 91.6268 22.0611C91.4904 22.3054 91.4222 22.5881 91.4222 22.9091V27H90.4165ZM104.971 24.3239V20.4545H105.977V27H104.971V25.892H104.903C104.75 26.2244 104.511 26.5071 104.187 26.7401C103.863 26.9702 103.454 27.0852 102.96 27.0852C102.551 27.0852 102.187 26.9957 101.869 26.8168C101.551 26.6349 101.301 26.3622 101.119 25.9986C100.937 25.6321 100.846 25.1705 100.846 24.6136V20.4545H101.852V24.5455C101.852 25.0227 101.985 25.4034 102.252 25.6875C102.522 25.9716 102.866 26.1136 103.284 26.1136C103.534 26.1136 103.788 26.0497 104.047 25.9219C104.308 25.794 104.527 25.598 104.703 25.3338C104.882 25.0696 104.971 24.733 104.971 24.3239ZM110.478 27.1364C109.864 27.1364 109.336 26.9915 108.893 26.7017C108.45 26.4119 108.109 26.0128 107.87 25.5043C107.631 24.9957 107.512 24.4148 107.512 23.7614C107.512 23.0966 107.634 22.5099 107.879 22.0014C108.126 21.4901 108.469 21.0909 108.91 20.804C109.353 20.5142 109.87 20.3693 110.461 20.3693C110.921 20.3693 111.336 20.4545 111.705 20.625C112.075 20.7955 112.377 21.0341 112.613 21.3409C112.849 21.6477 112.995 22.0057 113.052 22.4148H112.046C111.969 22.1165 111.799 21.8523 111.535 21.6222C111.273 21.3892 110.921 21.2727 110.478 21.2727C110.086 21.2727 109.742 21.375 109.447 21.5795C109.154 21.7812 108.925 22.0668 108.761 22.4361C108.599 22.8026 108.518 23.233 108.518 23.7273C108.518 24.233 108.597 24.6733 108.756 25.0483C108.918 25.4233 109.146 25.7145 109.438 25.9219C109.734 26.1293 110.08 26.233 110.478 26.233C110.739 26.233 110.977 26.1875 111.19 26.0966C111.403 26.0057 111.583 25.875 111.731 25.7045C111.879 25.5341 111.984 25.3295 112.046 25.0909H113.052C112.995 25.4773 112.854 25.8253 112.63 26.1349C112.408 26.4418 112.114 26.6861 111.748 26.8679C111.384 27.0469 110.961 27.1364 110.478 27.1364ZM115.528 23.0625V27H114.522V18.2727H115.528V21.4773H115.613C115.766 21.1392 115.996 20.8707 116.303 20.6719C116.613 20.4702 117.025 20.3693 117.539 20.3693C117.985 20.3693 118.376 20.4588 118.711 20.6378C119.046 20.8139 119.306 21.0852 119.491 21.4517C119.678 21.8153 119.772 22.2784 119.772 22.8409V27H118.766V22.9091C118.766 22.3892 118.631 21.9872 118.362 21.7031C118.094 21.4162 117.724 21.2727 117.249 21.2727C116.92 21.2727 116.624 21.3423 116.363 21.4815C116.104 21.6207 115.9 21.8239 115.749 22.0909C115.602 22.358 115.528 22.6818 115.528 23.0625ZM125.993 23.0625V27H124.987V18.2727H125.993V21.4773H126.078C126.231 21.1392 126.461 20.8707 126.768 20.6719C127.078 20.4702 127.49 20.3693 128.004 20.3693C128.45 20.3693 128.841 20.4588 129.176 20.6378C129.511 20.8139 129.771 21.0852 129.956 21.4517C130.143 21.8153 130.237 22.2784 130.237 22.8409V27H129.231V22.9091C129.231 22.3892 129.096 21.9872 128.826 21.7031C128.559 21.4162 128.189 21.2727 127.714 21.2727C127.385 21.2727 127.089 21.3423 126.828 21.4815C126.569 21.6207 126.365 21.8239 126.214 22.0909C126.066 22.358 125.993 22.6818 125.993 23.0625ZM132.077 27V20.4545H133.082V27H132.077ZM132.588 19.3636C132.392 19.3636 132.223 19.2969 132.081 19.1634C131.942 19.0298 131.872 18.8693 131.872 18.6818C131.872 18.4943 131.942 18.3338 132.081 18.2003C132.223 18.0668 132.392 18 132.588 18C132.784 18 132.952 18.0668 133.091 18.2003C133.233 18.3338 133.304 18.4943 133.304 18.6818C133.304 18.8693 133.233 19.0298 133.091 19.1634C132.952 19.2969 132.784 19.3636 132.588 19.3636ZM137.566 29.5909C137.081 29.5909 136.663 29.5284 136.314 29.4034C135.964 29.2812 135.673 29.1193 135.44 28.9176C135.21 28.7188 135.027 28.5057 134.89 28.2784L135.691 27.7159C135.782 27.8352 135.897 27.9716 136.037 28.125C136.176 28.2812 136.366 28.4162 136.608 28.5298C136.852 28.6463 137.172 28.7045 137.566 28.7045C138.095 28.7045 138.531 28.5767 138.875 28.321C139.218 28.0653 139.39 27.6648 139.39 27.1193V25.7898H139.305C139.231 25.9091 139.126 26.0568 138.99 26.233C138.856 26.4062 138.663 26.5611 138.41 26.6974C138.16 26.831 137.822 26.8977 137.396 26.8977C136.868 26.8977 136.393 26.7727 135.973 26.5227C135.555 26.2727 135.224 25.9091 134.98 25.4318C134.738 24.9545 134.618 24.375 134.618 23.6932C134.618 23.0227 134.735 22.4389 134.971 21.9418C135.207 21.4418 135.535 21.0554 135.956 20.7827C136.376 20.5071 136.862 20.3693 137.413 20.3693C137.839 20.3693 138.177 20.4403 138.427 20.5824C138.68 20.7216 138.873 20.8807 139.007 21.0597C139.143 21.2358 139.248 21.3807 139.322 21.4943H139.424V20.4545H140.396V27.1875C140.396 27.75 140.268 28.2074 140.012 28.5597C139.76 28.9148 139.419 29.1747 138.99 29.3395C138.564 29.5071 138.089 29.5909 137.566 29.5909ZM137.532 25.9943C137.936 25.9943 138.277 25.902 138.555 25.7173C138.833 25.5327 139.045 25.267 139.19 24.9205C139.335 24.5739 139.407 24.1591 139.407 23.6761C139.407 23.2045 139.336 22.7884 139.194 22.4276C139.052 22.0668 138.842 21.7841 138.564 21.5795C138.285 21.375 137.941 21.2727 137.532 21.2727C137.106 21.2727 136.751 21.3807 136.467 21.5966C136.186 21.8125 135.974 22.1023 135.832 22.4659C135.693 22.8295 135.623 23.233 135.623 23.6761C135.623 24.1307 135.694 24.5327 135.836 24.8821C135.981 25.2287 136.194 25.5014 136.475 25.7003C136.76 25.8963 137.112 25.9943 137.532 25.9943ZM143.243 23.0625V27H142.237V18.2727H143.243V21.4773H143.328C143.481 21.1392 143.711 20.8707 144.018 20.6719C144.328 20.4702 144.74 20.3693 145.254 20.3693C145.7 20.3693 146.091 20.4588 146.426 20.6378C146.761 20.8139 147.021 21.0852 147.206 21.4517C147.393 21.8153 147.487 22.2784 147.487 22.8409V27H146.481V22.9091C146.481 22.3892 146.346 21.9872 146.076 21.7031C145.809 21.4162 145.439 21.2727 144.964 21.2727C144.635 21.2727 144.339 21.3423 144.078 21.4815C143.819 21.6207 143.615 21.8239 143.464 22.0909C143.316 22.358 143.243 22.6818 143.243 23.0625ZM152.071 27.1364C151.44 27.1364 150.896 26.9972 150.439 26.7188C149.984 26.4375 149.634 26.0455 149.386 25.5426C149.142 25.0369 149.02 24.4489 149.02 23.7784C149.02 23.108 149.142 22.517 149.386 22.0057C149.634 21.4915 149.977 21.0909 150.418 20.804C150.861 20.5142 151.378 20.3693 151.969 20.3693C152.31 20.3693 152.646 20.4261 152.979 20.5398C153.311 20.6534 153.614 20.8381 153.886 21.0938C154.159 21.3466 154.376 21.6818 154.538 22.0994C154.7 22.517 154.781 23.0312 154.781 23.642V24.0682H149.736V23.1989H153.759C153.759 22.8295 153.685 22.5 153.537 22.2102C153.392 21.9205 153.185 21.6918 152.915 21.5241C152.648 21.3565 152.332 21.2727 151.969 21.2727C151.568 21.2727 151.222 21.3722 150.929 21.571C150.639 21.767 150.416 22.0227 150.26 22.3381C150.104 22.6534 150.026 22.9915 150.026 23.3523V23.9318C150.026 24.4261 150.111 24.8452 150.281 25.1889C150.455 25.5298 150.695 25.7898 151.001 25.9688C151.308 26.1449 151.665 26.233 152.071 26.233C152.335 26.233 152.574 26.196 152.787 26.1222C153.003 26.0455 153.189 25.9318 153.345 25.7812C153.501 25.6278 153.622 25.4375 153.707 25.2102L154.679 25.483C154.577 25.8125 154.405 26.1023 154.163 26.3523C153.922 26.5994 153.624 26.7926 153.268 26.9318C152.913 27.0682 152.514 27.1364 152.071 27.1364ZM156.311 27V20.4545H157.283V21.4432H157.351C157.47 21.1193 157.686 20.8565 157.999 20.6548C158.311 20.4531 158.663 20.3523 159.055 20.3523C159.129 20.3523 159.222 20.3537 159.332 20.3565C159.443 20.3594 159.527 20.3636 159.584 20.3693V21.392C159.55 21.3835 159.472 21.3707 159.349 21.3537C159.23 21.3338 159.104 21.3239 158.97 21.3239C158.652 21.3239 158.368 21.3906 158.118 21.5241C157.871 21.6548 157.675 21.8366 157.53 22.0696C157.388 22.2997 157.317 22.5625 157.317 22.858V27H156.311ZM38.3864 44.4545V40.9943H38.3011C38.2273 41.1136 38.1222 41.2642 37.9858 41.446C37.8494 41.625 37.6548 41.7855 37.402 41.9276C37.1491 42.0668 36.8125 42.1364 36.392 42.1364C35.8466 42.1364 35.3651 41.9986 34.9474 41.723C34.5298 41.4446 34.2031 41.0526 33.9673 40.5469C33.7315 40.0384 33.6136 39.4375 33.6136 38.7443C33.6136 38.0568 33.7315 37.4602 33.9673 36.9545C34.2031 36.4489 34.5313 36.0582 34.9517 35.7827C35.3722 35.5071 35.858 35.3693 36.4091 35.3693C36.8352 35.3693 37.1719 35.4403 37.419 35.5824C37.669 35.7216 37.8594 35.8807 37.9901 36.0597C38.1236 36.2358 38.2273 36.3807 38.3011 36.4943H38.4205V35.4545H39.392V44.4545H38.3864ZM36.5284 41.233C36.9318 41.233 37.2727 41.1278 37.5511 40.9176C37.8295 40.7045 38.0412 40.4105 38.1861 40.0355C38.331 39.6577 38.4034 39.2216 38.4034 38.7273C38.4034 38.2386 38.3324 37.8111 38.1903 37.4446C38.0483 37.0753 37.8381 36.7884 37.5597 36.5838C37.2813 36.3764 36.9375 36.2727 36.5284 36.2727C36.1023 36.2727 35.7472 36.3821 35.4631 36.6009C35.1818 36.8168 34.9702 37.1108 34.8281 37.483C34.6889 37.8523 34.6193 38.267 34.6193 38.7273C34.6193 39.1932 34.6903 39.6165 34.8324 39.9972C34.9773 40.375 35.1903 40.6761 35.4716 40.9006C35.7557 41.1222 36.108 41.233 36.5284 41.233ZM45.358 39.3239V35.4545H46.3636V42H45.358V40.892H45.2898C45.1364 41.2244 44.8977 41.5071 44.5739 41.7401C44.25 41.9702 43.8409 42.0852 43.3466 42.0852C42.9375 42.0852 42.5739 41.9957 42.2557 41.8168C41.9375 41.6349 41.6875 41.3622 41.5057 40.9986C41.3239 40.6321 41.233 40.1705 41.233 39.6136V35.4545H42.2386V39.5455C42.2386 40.0227 42.3722 40.4034 42.6392 40.6875C42.9091 40.9716 43.2528 41.1136 43.6705 41.1136C43.9205 41.1136 44.1747 41.0497 44.4332 40.9219C44.6946 40.794 44.9134 40.598 45.0895 40.3338C45.2685 40.0696 45.358 39.733 45.358 39.3239ZM50.1317 42.1534C49.717 42.1534 49.3406 42.0753 49.0025 41.919C48.6644 41.7599 48.396 41.5312 48.1971 41.233C47.9982 40.9318 47.8988 40.5682 47.8988 40.142C47.8988 39.767 47.9727 39.4631 48.1204 39.2301C48.2681 38.9943 48.4656 38.8097 48.7127 38.6761C48.9599 38.5426 49.2326 38.4432 49.5309 38.3778C49.832 38.3097 50.1346 38.2557 50.4386 38.2159C50.8363 38.1648 51.1587 38.1264 51.4059 38.1009C51.6559 38.0724 51.8377 38.0256 51.9513 37.9602C52.0678 37.8949 52.1261 37.7812 52.1261 37.6193V37.5852C52.1261 37.1648 52.011 36.8381 51.7809 36.6051C51.5536 36.3722 51.2085 36.2557 50.7454 36.2557C50.2653 36.2557 49.8888 36.3608 49.6161 36.571C49.3434 36.7812 49.1516 37.0057 49.0408 37.2443L48.0863 36.9034C48.2567 36.5057 48.484 36.196 48.7681 35.9744C49.055 35.75 49.3675 35.5937 49.7056 35.5057C50.0465 35.4148 50.3817 35.3693 50.7113 35.3693C50.9215 35.3693 51.163 35.3949 51.4357 35.446C51.7113 35.4943 51.9769 35.5952 52.2326 35.7486C52.4911 35.902 52.7056 36.1335 52.8761 36.4432C53.0465 36.7528 53.1317 37.1676 53.1317 37.6875V42H52.1261V41.1136H52.0749C52.0067 41.2557 51.8931 41.4077 51.734 41.5696C51.5749 41.7315 51.3633 41.8693 51.0991 41.983C50.8349 42.0966 50.5124 42.1534 50.1317 42.1534ZM50.2852 41.25C50.6829 41.25 51.0181 41.1719 51.2908 41.0156C51.5664 40.8594 51.7738 40.6577 51.913 40.4105C52.055 40.1634 52.1261 39.9034 52.1261 39.6307V38.7102C52.0835 38.7614 51.9897 38.8082 51.8448 38.8509C51.7028 38.8906 51.538 38.9261 51.3505 38.9574C51.1658 38.9858 50.9854 39.0114 50.8093 39.0341C50.636 39.054 50.4954 39.071 50.3874 39.0852C50.1261 39.1193 49.8817 39.1747 49.6545 39.2514C49.43 39.3253 49.2482 39.4375 49.109 39.5881C48.9727 39.7358 48.9045 39.9375 48.9045 40.1932C48.9045 40.5426 49.0337 40.8068 49.2923 40.9858C49.5536 41.1619 49.8846 41.25 50.2852 41.25ZM55.973 33.2727V42H54.9673V33.2727H55.973ZM57.815 42V35.4545H58.8207V42H57.815ZM58.3263 34.3636C58.1303 34.3636 57.9613 34.2969 57.8192 34.1634C57.68 34.0298 57.6104 33.8693 57.6104 33.6818C57.6104 33.4943 57.68 33.3338 57.8192 33.2003C57.9613 33.0668 58.1303 33 58.3263 33C58.5224 33 58.69 33.0668 58.8292 33.2003C58.9712 33.3338 59.0423 33.4943 59.0423 33.6818C59.0423 33.8693 58.9712 34.0298 58.8292 34.1634C58.69 34.2969 58.5224 34.3636 58.3263 34.3636ZM63.5092 35.4545V36.3068H60.1172V35.4545H63.5092ZM61.1058 33.8864H62.1115V40.125C62.1115 40.4091 62.1527 40.6222 62.2351 40.7642C62.3203 40.9034 62.4283 40.9972 62.5589 41.0455C62.6925 41.0909 62.8331 41.1136 62.9808 41.1136C63.0916 41.1136 63.1825 41.108 63.2536 41.0966C63.3246 41.0824 63.3814 41.071 63.424 41.0625L63.6286 41.9659C63.5604 41.9915 63.4652 42.017 63.343 42.0426C63.2209 42.071 63.0661 42.0852 62.8786 42.0852C62.5945 42.0852 62.3161 42.0241 62.0433 41.902C61.7734 41.7798 61.549 41.5938 61.37 41.3438C61.1939 41.0938 61.1058 40.7784 61.1058 40.3977V33.8864ZM65.6697 44.4545C65.4993 44.4545 65.3473 44.4403 65.2138 44.4119C65.0803 44.3864 64.9879 44.3608 64.9368 44.3352L65.1925 43.4489C65.4368 43.5114 65.6527 43.5341 65.8402 43.517C66.0277 43.5 66.1939 43.4162 66.3388 43.2656C66.4865 43.1179 66.6214 42.8778 66.7436 42.5455L66.9311 42.0341L64.5107 35.4545H65.6016L67.4084 40.6705H67.4766L69.2834 35.4545H70.3743L67.5959 42.9545C67.4709 43.2926 67.3161 43.5724 67.1314 43.794C66.9467 44.0185 66.7322 44.1847 66.4879 44.2926C66.2464 44.4006 65.9737 44.4545 65.6697 44.4545ZM76.0824 38.0625V42H75.0767V33.2727H76.0824V36.4773H76.1676C76.321 36.1392 76.5511 35.8707 76.858 35.6719C77.1676 35.4702 77.5795 35.3693 78.0938 35.3693C78.5398 35.3693 78.9304 35.4588 79.2656 35.6378C79.6009 35.8139 79.8608 36.0852 80.0455 36.4517C80.233 36.8153 80.3267 37.2784 80.3267 37.8409V42H79.321V37.9091C79.321 37.3892 79.1861 36.9872 78.9162 36.7031C78.6491 36.4162 78.2784 36.2727 77.804 36.2727C77.4744 36.2727 77.179 36.3423 76.9176 36.4815C76.6591 36.6207 76.4545 36.8239 76.304 37.0909C76.1563 37.358 76.0824 37.6818 76.0824 38.0625ZM84.9109 42.1364C84.2802 42.1364 83.7362 41.9972 83.2788 41.7188C82.8242 41.4375 82.4734 41.0455 82.2262 40.5426C81.9819 40.0369 81.8597 39.4489 81.8597 38.7784C81.8597 38.108 81.9819 37.517 82.2262 37.0057C82.4734 36.4915 82.8171 36.0909 83.2575 35.804C83.7006 35.5142 84.2177 35.3693 84.8086 35.3693C85.1495 35.3693 85.4862 35.4261 85.8185 35.5398C86.1509 35.6534 86.4535 35.8381 86.7262 36.0938C86.9989 36.3466 87.2163 36.6818 87.3782 37.0994C87.5401 37.517 87.6211 38.0312 87.6211 38.642V39.0682H82.5756V38.1989H86.5984C86.5984 37.8295 86.5245 37.5 86.3768 37.2102C86.2319 36.9205 86.0245 36.6918 85.7546 36.5241C85.4876 36.3565 85.1722 36.2727 84.8086 36.2727C84.408 36.2727 84.0614 36.3722 83.7688 36.571C83.479 36.767 83.256 37.0227 83.0998 37.3381C82.9435 37.6534 82.8654 37.9915 82.8654 38.3523V38.9318C82.8654 39.4261 82.9506 39.8452 83.1211 40.1889C83.2944 40.5298 83.5344 40.7898 83.8413 40.9688C84.1481 41.1449 84.5046 41.233 84.9109 41.233C85.1751 41.233 85.4137 41.196 85.6268 41.1222C85.8427 41.0455 86.0288 40.9318 86.185 40.7812C86.3413 40.6278 86.462 40.4375 86.5472 40.2102L87.5188 40.483C87.4165 40.8125 87.2447 41.1023 87.0032 41.3523C86.7617 41.5994 86.4634 41.7926 86.1083 41.9318C85.7532 42.0682 85.354 42.1364 84.9109 42.1364ZM91.0771 42.1534C90.6623 42.1534 90.2859 42.0753 89.9478 41.919C89.6097 41.7599 89.3413 41.5312 89.1424 41.233C88.9435 40.9318 88.8441 40.5682 88.8441 40.142C88.8441 39.767 88.918 39.4631 89.0657 39.2301C89.2134 38.9943 89.4109 38.8097 89.658 38.6761C89.9052 38.5426 90.1779 38.4432 90.4762 38.3778C90.7773 38.3097 91.0799 38.2557 91.3839 38.2159C91.7816 38.1648 92.104 38.1264 92.3512 38.1009C92.6012 38.0724 92.783 38.0256 92.8967 37.9602C93.0131 37.8949 93.0714 37.7812 93.0714 37.6193V37.5852C93.0714 37.1648 92.9563 36.8381 92.7262 36.6051C92.4989 36.3722 92.1538 36.2557 91.6907 36.2557C91.2106 36.2557 90.8342 36.3608 90.5614 36.571C90.2887 36.7812 90.0969 37.0057 89.9862 37.2443L89.0316 36.9034C89.2021 36.5057 89.4293 36.196 89.7134 35.9744C90.0004 35.75 90.3129 35.5937 90.6509 35.5057C90.9918 35.4148 91.3271 35.3693 91.6566 35.3693C91.8668 35.3693 92.1083 35.3949 92.381 35.446C92.6566 35.4943 92.9222 35.5952 93.1779 35.7486C93.4364 35.902 93.6509 36.1335 93.8214 36.4432C93.9918 36.7528 94.0771 37.1676 94.0771 37.6875V42H93.0714V41.1136H93.0202C92.9521 41.2557 92.8384 41.4077 92.6793 41.5696C92.5202 41.7315 92.3086 41.8693 92.0444 41.983C91.7802 42.0966 91.4577 42.1534 91.0771 42.1534ZM91.2305 41.25C91.6282 41.25 91.9634 41.1719 92.2362 41.0156C92.5117 40.8594 92.7191 40.6577 92.8583 40.4105C93.0004 40.1634 93.0714 39.9034 93.0714 39.6307V38.7102C93.0288 38.7614 92.935 38.8082 92.7901 38.8509C92.6481 38.8906 92.4833 38.9261 92.2958 38.9574C92.1112 38.9858 91.9308 39.0114 91.7546 39.0341C91.5813 39.054 91.4407 39.071 91.3327 39.0852C91.0714 39.1193 90.8271 39.1747 90.5998 39.2514C90.3754 39.3253 90.1935 39.4375 90.0543 39.5881C89.918 39.7358 89.8498 39.9375 89.8498 40.1932C89.8498 40.5426 89.979 40.8068 90.2376 40.9858C90.4989 41.1619 90.8299 41.25 91.2305 41.25ZM98.7592 35.4545V36.3068H95.3672V35.4545H98.7592ZM96.3558 33.8864H97.3615V40.125C97.3615 40.4091 97.4027 40.6222 97.4851 40.7642C97.5703 40.9034 97.6783 40.9972 97.8089 41.0455C97.9425 41.0909 98.0831 41.1136 98.2308 41.1136C98.3416 41.1136 98.4325 41.108 98.5036 41.0966C98.5746 41.0824 98.6314 41.071 98.674 41.0625L98.8786 41.9659C98.8104 41.9915 98.7152 42.017 98.593 42.0426C98.4709 42.071 98.3161 42.0852 98.1286 42.0852C97.8445 42.0852 97.5661 42.0241 97.2933 41.902C97.0234 41.7798 96.799 41.5938 96.62 41.3438C96.4439 41.0938 96.3558 40.7784 96.3558 40.3977V33.8864ZM100.272 42V35.4545H101.244V36.4773H101.329C101.465 36.1278 101.685 35.8565 101.989 35.6634C102.293 35.4673 102.658 35.3693 103.085 35.3693C103.516 35.3693 103.876 35.4673 104.163 35.6634C104.452 35.8565 104.678 36.1278 104.84 36.4773H104.908C105.076 36.1392 105.327 35.8707 105.663 35.6719C105.998 35.4702 106.4 35.3693 106.869 35.3693C107.454 35.3693 107.933 35.5526 108.305 35.919C108.677 36.2827 108.863 36.8494 108.863 37.6193V42H107.857V37.6193C107.857 37.1364 107.725 36.7912 107.461 36.5838C107.197 36.3764 106.886 36.2727 106.528 36.2727C106.067 36.2727 105.711 36.4119 105.458 36.6903C105.205 36.9659 105.079 37.3153 105.079 37.7386V42H104.056V37.517C104.056 37.1449 103.935 36.8452 103.694 36.6179C103.452 36.3878 103.141 36.2727 102.761 36.2727C102.499 36.2727 102.255 36.3423 102.028 36.4815C101.803 36.6207 101.621 36.8139 101.482 37.0611C101.346 37.3054 101.278 37.5881 101.278 37.9091V42H100.272ZM112.628 42.1534C112.213 42.1534 111.837 42.0753 111.499 41.919C111.161 41.7599 110.892 41.5312 110.693 41.233C110.494 40.9318 110.395 40.5682 110.395 40.142C110.395 39.767 110.469 39.4631 110.616 39.2301C110.764 38.9943 110.962 38.8097 111.209 38.6761C111.456 38.5426 111.729 38.4432 112.027 38.3778C112.328 38.3097 112.631 38.2557 112.935 38.2159C113.332 38.1648 113.655 38.1264 113.902 38.1009C114.152 38.0724 114.334 38.0256 114.447 37.9602C114.564 37.8949 114.622 37.7812 114.622 37.6193V37.5852C114.622 37.1648 114.507 36.8381 114.277 36.6051C114.05 36.3722 113.705 36.2557 113.241 36.2557C112.761 36.2557 112.385 36.3608 112.112 36.571C111.839 36.7812 111.648 37.0057 111.537 37.2443L110.582 36.9034C110.753 36.5057 110.98 36.196 111.264 35.9744C111.551 35.75 111.864 35.5937 112.202 35.5057C112.543 35.4148 112.878 35.3693 113.207 35.3693C113.418 35.3693 113.659 35.3949 113.932 35.446C114.207 35.4943 114.473 35.5952 114.729 35.7486C114.987 35.902 115.202 36.1335 115.372 36.4432C115.543 36.7528 115.628 37.1676 115.628 37.6875V42H114.622V41.1136H114.571C114.503 41.2557 114.389 41.4077 114.23 41.5696C114.071 41.7315 113.859 41.8693 113.595 41.983C113.331 42.0966 113.009 42.1534 112.628 42.1534ZM112.781 41.25C113.179 41.25 113.514 41.1719 113.787 41.0156C114.063 40.8594 114.27 40.6577 114.409 40.4105C114.551 40.1634 114.622 39.9034 114.622 39.6307V38.7102C114.58 38.7614 114.486 38.8082 114.341 38.8509C114.199 38.8906 114.034 38.9261 113.847 38.9574C113.662 38.9858 113.482 39.0114 113.305 39.0341C113.132 39.054 112.991 39.071 112.884 39.0852C112.622 39.1193 112.378 39.1747 112.151 39.2514C111.926 39.3253 111.744 39.4375 111.605 39.5881C111.469 39.7358 111.401 39.9375 111.401 40.1932C111.401 40.5426 111.53 40.8068 111.788 40.9858C112.05 41.1619 112.381 41.25 112.781 41.25ZM117.463 44.4545V35.4545H118.435V36.4943H118.554C118.628 36.3807 118.73 36.2358 118.861 36.0597C118.995 35.8807 119.185 35.7216 119.432 35.5824C119.682 35.4403 120.02 35.3693 120.446 35.3693C120.998 35.3693 121.483 35.5071 121.904 35.7827C122.324 36.0582 122.652 36.4489 122.888 36.9545C123.124 37.4602 123.242 38.0568 123.242 38.7443C123.242 39.4375 123.124 40.0384 122.888 40.5469C122.652 41.0526 122.326 41.4446 121.908 41.723C121.49 41.9986 121.009 42.1364 120.463 42.1364C120.043 42.1364 119.706 42.0668 119.453 41.9276C119.201 41.7855 119.006 41.625 118.87 41.446C118.733 41.2642 118.628 41.1136 118.554 40.9943H118.469V44.4545H117.463ZM118.452 38.7273C118.452 39.2216 118.525 39.6577 118.669 40.0355C118.814 40.4105 119.026 40.7045 119.304 40.9176C119.583 41.1278 119.924 41.233 120.327 41.233C120.748 41.233 121.098 41.1222 121.38 40.9006C121.664 40.6761 121.877 40.375 122.019 39.9972C122.164 39.6165 122.236 39.1932 122.236 38.7273C122.236 38.267 122.165 37.8523 122.023 37.483C121.884 37.1108 121.672 36.8168 121.388 36.6009C121.107 36.3821 120.753 36.2727 120.327 36.2727C119.918 36.2727 119.574 36.3764 119.296 36.5838C119.017 36.7884 118.807 37.0753 118.665 37.4446C118.523 37.8111 118.452 38.2386 118.452 38.7273ZM129.412 36.9205L128.509 37.1761C128.452 37.0256 128.368 36.8793 128.257 36.7372C128.15 36.5923 128.002 36.473 127.814 36.3793C127.627 36.2855 127.387 36.2386 127.094 36.2386C126.694 36.2386 126.36 36.331 126.093 36.5156C125.828 36.6974 125.696 36.929 125.696 37.2102C125.696 37.4602 125.787 37.6577 125.969 37.8026C126.151 37.9474 126.435 38.0682 126.821 38.1648L127.793 38.4034C128.378 38.5455 128.814 38.7628 129.101 39.0554C129.388 39.3452 129.532 39.7187 129.532 40.1761C129.532 40.5511 129.424 40.8864 129.208 41.1818C128.995 41.4773 128.696 41.7102 128.313 41.8807C127.929 42.0511 127.483 42.1364 126.975 42.1364C126.307 42.1364 125.755 41.9915 125.317 41.7017C124.88 41.4119 124.603 40.9886 124.486 40.4318L125.441 40.1932C125.532 40.5455 125.703 40.8097 125.956 40.9858C126.212 41.1619 126.546 41.25 126.958 41.25C127.426 41.25 127.799 41.1506 128.074 40.9517C128.353 40.75 128.492 40.5085 128.492 40.2273C128.492 40 128.412 39.8097 128.253 39.6562C128.094 39.5 127.85 39.3835 127.52 39.3068L126.429 39.0511C125.83 38.9091 125.39 38.6889 125.108 38.3906C124.83 38.0895 124.691 37.7131 124.691 37.2614C124.691 36.892 124.794 36.5653 125.002 36.2812C125.212 35.9972 125.498 35.7741 125.858 35.6122C126.222 35.4503 126.634 35.3693 127.094 35.3693C127.742 35.3693 128.25 35.5114 128.62 35.7955C128.992 36.0795 129.256 36.4545 129.412 36.9205Z" fill="white"/>
</svg>
