<svg width="107" height="66" viewBox="0 0 107 66" fill="none" xmlns="http://www.w3.org/2000/svg">
<path d="M2 4.5L9.52813 8.78104L9.47155 0.120966L2 4.5ZM8.74484 5.20588C12.9981 5.23632 16.3353 5.58238 18.6259 7.16191C20.8385 8.6876 22.25 11.5075 22.25 17L23.75 17C23.75 11.2759 22.272 7.8541 19.4774 5.92703C16.7609 4.05381 12.9731 3.7361 8.75558 3.70592L8.74484 5.20588Z" fill="#F3B13E"/>
<path d="M8.33097 24.2173H6.73722C6.69176 23.956 6.60795 23.7244 6.4858 23.5227C6.36364 23.3182 6.21165 23.1449 6.02983 23.0028C5.84801 22.8608 5.64063 22.7543 5.40767 22.6832C5.17756 22.6094 4.92898 22.5724 4.66193 22.5724C4.1875 22.5724 3.76705 22.6918 3.40057 22.9304C3.03409 23.1662 2.74716 23.5128 2.53977 23.9702C2.33239 24.4247 2.22869 24.9801 2.22869 25.6364C2.22869 26.304 2.33239 26.8665 2.53977 27.3239C2.75 27.7784 3.03693 28.1222 3.40057 28.3551C3.76705 28.5852 4.18608 28.7003 4.65767 28.7003C4.91903 28.7003 5.16335 28.6662 5.39062 28.598C5.62074 28.527 5.8267 28.4233 6.00852 28.2869C6.19318 28.1506 6.34801 27.983 6.47301 27.7841C6.60085 27.5852 6.68892 27.358 6.73722 27.1023L8.33097 27.1108C8.27131 27.5256 8.14205 27.9148 7.94318 28.2784C7.74716 28.642 7.49006 28.9631 7.17188 29.2415C6.85369 29.517 6.48153 29.733 6.0554 29.8892C5.62926 30.0426 5.15625 30.1193 4.63636 30.1193C3.86932 30.1193 3.18466 29.9418 2.58239 29.5866C1.98011 29.2315 1.50568 28.7188 1.15909 28.0483C0.8125 27.3778 0.639205 26.5739 0.639205 25.6364C0.639205 24.696 0.81392 23.892 1.16335 23.2244C1.51278 22.554 1.98864 22.0412 2.59091 21.6861C3.19318 21.331 3.875 21.1534 4.63636 21.1534C5.12216 21.1534 5.57386 21.2216 5.99148 21.358C6.40909 21.4943 6.78125 21.6946 7.10795 21.9588C7.43466 22.2202 7.70313 22.5412 7.91335 22.9219C8.12642 23.2997 8.26563 23.7315 8.33097 24.2173ZM12.5657 30.1278C11.9265 30.1278 11.3725 29.9872 10.9038 29.706C10.435 29.4247 10.0714 29.0312 9.81286 28.5256C9.55717 28.0199 9.42933 27.429 9.42933 26.7528C9.42933 26.0767 9.55717 25.4844 9.81286 24.9759C10.0714 24.4673 10.435 24.0724 10.9038 23.7912C11.3725 23.5099 11.9265 23.3693 12.5657 23.3693C13.2049 23.3693 13.7589 23.5099 14.2276 23.7912C14.6964 24.0724 15.0586 24.4673 15.3143 24.9759C15.5728 25.4844 15.7021 26.0767 15.7021 26.7528C15.7021 27.429 15.5728 28.0199 15.3143 28.5256C15.0586 29.0312 14.6964 29.4247 14.2276 29.706C13.7589 29.9872 13.2049 30.1278 12.5657 30.1278ZM12.5742 28.892C12.9208 28.892 13.2106 28.7969 13.4435 28.6065C13.6765 28.4134 13.8498 28.1548 13.9634 27.831C14.0799 27.5071 14.1381 27.1463 14.1381 26.7486C14.1381 26.348 14.0799 25.9858 13.9634 25.6619C13.8498 25.3352 13.6765 25.0753 13.4435 24.8821C13.2106 24.6889 12.9208 24.5923 12.5742 24.5923C12.2191 24.5923 11.9237 24.6889 11.6879 24.8821C11.4549 25.0753 11.2802 25.3352 11.1637 25.6619C11.0501 25.9858 10.9933 26.348 10.9933 26.7486C10.9933 27.1463 11.0501 27.5071 11.1637 27.831C11.2802 28.1548 11.4549 28.4134 11.6879 28.6065C11.9237 28.7969 12.2191 28.892 12.5742 28.892ZM18.554 26.1648V30H17.0114V23.4545H18.4858V24.5668H18.5625C18.7131 24.2003 18.9531 23.9091 19.2827 23.6932C19.6151 23.4773 20.0256 23.3693 20.5142 23.3693C20.9659 23.3693 21.3594 23.4659 21.6946 23.6591C22.0327 23.8523 22.294 24.1321 22.4787 24.4986C22.6662 24.8651 22.7585 25.3097 22.7557 25.8324V30H21.2131V26.071C21.2131 25.6335 21.0994 25.2912 20.8722 25.044C20.6477 24.7969 20.3366 24.6733 19.9389 24.6733C19.669 24.6733 19.429 24.733 19.2188 24.8523C19.0114 24.9687 18.848 25.1378 18.7287 25.3594C18.6122 25.581 18.554 25.8494 18.554 26.1648ZM27.179 30.1278C26.5256 30.1278 25.9645 29.9844 25.4957 29.6974C25.0298 29.4105 24.6705 29.0142 24.4176 28.5085C24.1676 28 24.0426 27.4148 24.0426 26.7528C24.0426 26.0881 24.1705 25.5014 24.4261 24.9929C24.6818 24.4815 25.0426 24.0838 25.5085 23.7997C25.9773 23.5128 26.5313 23.3693 27.1705 23.3693C27.7017 23.3693 28.1719 23.4673 28.581 23.6634C28.9929 23.8565 29.321 24.1307 29.5653 24.4858C29.8097 24.8381 29.9489 25.25 29.983 25.7216H28.5085C28.4489 25.4062 28.3068 25.1435 28.0824 24.9332C27.8608 24.7202 27.5639 24.6136 27.1918 24.6136C26.8764 24.6136 26.5994 24.6989 26.3608 24.8693C26.1222 25.0369 25.9361 25.2784 25.8026 25.5938C25.6719 25.9091 25.6065 26.2869 25.6065 26.7273C25.6065 27.1733 25.6719 27.5568 25.8026 27.8778C25.9332 28.196 26.1165 28.4418 26.3523 28.6151C26.5909 28.7855 26.8707 28.8707 27.1918 28.8707C27.419 28.8707 27.6222 28.8281 27.8011 28.7429C27.983 28.6548 28.1349 28.5284 28.2571 28.3636C28.3793 28.1989 28.4631 27.9986 28.5085 27.7628H29.983C29.946 28.2259 29.8097 28.6364 29.5739 28.9943C29.3381 29.3494 29.017 29.6278 28.6108 29.8295C28.2045 30.0284 27.7273 30.1278 27.179 30.1278ZM34.1474 30.1278C33.4911 30.1278 32.9244 29.9915 32.4471 29.7188C31.9727 29.4432 31.6076 29.054 31.3519 28.5511C31.0962 28.0455 30.9684 27.4503 30.9684 26.7656C30.9684 26.0923 31.0962 25.5014 31.3519 24.9929C31.6104 24.4815 31.9712 24.0838 32.4343 23.7997C32.8974 23.5128 33.4414 23.3693 34.0664 23.3693C34.4698 23.3693 34.8505 23.4347 35.2085 23.5653C35.5692 23.6932 35.8874 23.892 36.163 24.1619C36.4414 24.4318 36.6602 24.7756 36.8192 25.1932C36.9783 25.608 37.0579 26.1023 37.0579 26.6761V27.1491H31.6928V26.1094H35.5792C35.5763 25.8139 35.5124 25.5511 35.3874 25.321C35.2624 25.0881 35.0877 24.9048 34.8633 24.7713C34.6417 24.6378 34.3832 24.571 34.0877 24.571C33.7724 24.571 33.4954 24.6477 33.2567 24.8011C33.0181 24.9517 32.832 25.1506 32.6985 25.3977C32.5678 25.642 32.5011 25.9105 32.4982 26.2031V27.1108C32.4982 27.4915 32.5678 27.8182 32.707 28.0909C32.8462 28.3608 33.0408 28.5682 33.2908 28.7131C33.5408 28.8551 33.8335 28.9261 34.1687 28.9261C34.3931 28.9261 34.5962 28.8949 34.7781 28.8324C34.9599 28.767 35.1175 28.6719 35.2511 28.5469C35.3846 28.4219 35.4854 28.267 35.5536 28.0824L36.994 28.2443C36.9031 28.625 36.7298 28.9574 36.4741 29.2415C36.2212 29.5227 35.8974 29.7415 35.5025 29.8977C35.1076 30.0511 34.6559 30.1278 34.1474 30.1278ZM38.3629 32.4545V23.4545H39.88V24.5369H39.9695C40.049 24.3778 40.1612 24.2088 40.3061 24.0298C40.451 23.848 40.647 23.6932 40.8942 23.5653C41.1413 23.4347 41.4567 23.3693 41.8402 23.3693C42.3459 23.3693 42.8018 23.4986 43.2081 23.7571C43.6172 24.0128 43.9411 24.392 44.1797 24.8949C44.4212 25.3949 44.5419 26.0085 44.5419 26.7358C44.5419 27.4545 44.424 28.0653 44.1882 28.5682C43.9524 29.071 43.6314 29.4545 43.2251 29.7188C42.8189 29.983 42.3587 30.1151 41.8445 30.1151C41.4695 30.1151 41.1584 30.0526 40.9112 29.9276C40.6641 29.8026 40.4652 29.652 40.3146 29.4759C40.1669 29.2969 40.0518 29.1278 39.9695 28.9688H39.9055V32.4545H38.3629ZM39.8757 26.7273C39.8757 27.1506 39.9354 27.5213 40.0547 27.8395C40.1768 28.1577 40.3516 28.4062 40.5788 28.5852C40.8089 28.7614 41.0874 28.8494 41.4141 28.8494C41.755 28.8494 42.0405 28.7585 42.2706 28.5767C42.5007 28.392 42.674 28.1406 42.7905 27.8224C42.9098 27.5014 42.9695 27.1364 42.9695 26.7273C42.9695 26.321 42.9112 25.9602 42.7947 25.6449C42.6783 25.3295 42.505 25.0824 42.2749 24.9034C42.0447 24.7244 41.7578 24.6349 41.4141 24.6349C41.0845 24.6349 40.8047 24.7216 40.5746 24.8949C40.3445 25.0682 40.1697 25.3111 40.0504 25.6236C39.9339 25.9361 39.8757 26.304 39.8757 26.7273ZM49.1314 23.4545V24.6477H45.3686V23.4545H49.1314ZM46.2976 21.8864H47.8402V28.0312C47.8402 28.2386 47.8714 28.3977 47.9339 28.5085C47.9993 28.6165 48.0845 28.6903 48.1896 28.7301C48.2947 28.7699 48.4112 28.7898 48.5391 28.7898C48.6357 28.7898 48.7237 28.7827 48.8033 28.7685C48.8857 28.7543 48.9482 28.7415 48.9908 28.7301L49.2507 29.9361C49.1683 29.9645 49.0504 29.9957 48.897 30.0298C48.7464 30.0639 48.5618 30.0838 48.343 30.0895C47.9567 30.1009 47.6087 30.0426 47.299 29.9148C46.9893 29.7841 46.7436 29.5824 46.5618 29.3097C46.3828 29.0369 46.2947 28.696 46.2976 28.2869V21.8864ZM51.6104 30H49.9229L52.9954 21.2727H54.9471L58.0238 30H56.3363L54.0053 23.0625H53.9371L51.6104 30ZM51.6658 26.5781H56.2681V27.848H51.6658V26.5781ZM61.9634 23.4545V24.6477H58.2006V23.4545H61.9634ZM59.1296 21.8864H60.6722V28.0312C60.6722 28.2386 60.7035 28.3977 60.766 28.5085C60.8313 28.6165 60.9165 28.6903 61.0217 28.7301C61.1268 28.7699 61.2433 28.7898 61.3711 28.7898C61.4677 28.7898 61.5558 28.7827 61.6353 28.7685C61.7177 28.7543 61.7802 28.7415 61.8228 28.7301L62.0827 29.9361C62.0004 29.9645 61.8825 29.9957 61.729 30.0298C61.5785 30.0639 61.3938 30.0838 61.1751 30.0895C60.7887 30.1009 60.4407 30.0426 60.131 29.9148C59.8214 29.7841 59.5756 29.5824 59.3938 29.3097C59.2148 29.0369 59.1268 28.696 59.1296 28.2869V21.8864ZM66.522 23.4545V24.6477H62.7592V23.4545H66.522ZM63.6882 21.8864H65.2308V28.0312C65.2308 28.2386 65.2621 28.3977 65.3246 28.5085C65.3899 28.6165 65.4751 28.6903 65.5803 28.7301C65.6854 28.7699 65.8018 28.7898 65.9297 28.7898C66.0263 28.7898 66.1143 28.7827 66.1939 28.7685C66.2763 28.7543 66.3388 28.7415 66.3814 28.7301L66.6413 29.9361C66.5589 29.9645 66.4411 29.9957 66.2876 30.0298C66.1371 30.0639 65.9524 30.0838 65.7337 30.0895C65.3473 30.1009 64.9993 30.0426 64.6896 29.9148C64.38 29.7841 64.1342 29.5824 63.9524 29.3097C63.7734 29.0369 63.6854 28.696 63.6882 28.2869V21.8864ZM70.6396 30.1278C69.9833 30.1278 69.4165 29.9915 68.9393 29.7188C68.4648 29.4432 68.0998 29.054 67.8441 28.5511C67.5884 28.0455 67.4606 27.4503 67.4606 26.7656C67.4606 26.0923 67.5884 25.5014 67.8441 24.9929C68.1026 24.4815 68.4634 24.0838 68.9265 23.7997C69.3896 23.5128 69.9336 23.3693 70.5586 23.3693C70.962 23.3693 71.3427 23.4347 71.7006 23.5653C72.0614 23.6932 72.3796 23.892 72.6552 24.1619C72.9336 24.4318 73.1523 24.7756 73.3114 25.1932C73.4705 25.608 73.5501 26.1023 73.5501 26.6761V27.1491H68.185V26.1094H72.0714C72.0685 25.8139 72.0046 25.5511 71.8796 25.321C71.7546 25.0881 71.5799 24.9048 71.3555 24.7713C71.1339 24.6378 70.8754 24.571 70.5799 24.571C70.2646 24.571 69.9876 24.6477 69.7489 24.8011C69.5103 24.9517 69.3242 25.1506 69.1907 25.3977C69.06 25.642 68.9933 25.9105 68.9904 26.2031V27.1108C68.9904 27.4915 69.06 27.8182 69.1992 28.0909C69.3384 28.3608 69.533 28.5682 69.783 28.7131C70.033 28.8551 70.3256 28.9261 70.6609 28.9261C70.8853 28.9261 71.0884 28.8949 71.2702 28.8324C71.4521 28.767 71.6097 28.6719 71.7433 28.5469C71.8768 28.4219 71.9776 28.267 72.0458 28.0824L73.4862 28.2443C73.3952 28.625 73.2219 28.9574 72.9663 29.2415C72.7134 29.5227 72.3896 29.7415 71.9947 29.8977C71.5998 30.0511 71.1481 30.1278 70.6396 30.1278ZM76.3977 26.1648V30H74.8551V23.4545H76.3295V24.5668H76.4062C76.5568 24.2003 76.7969 23.9091 77.1264 23.6932C77.4588 23.4773 77.8693 23.3693 78.358 23.3693C78.8097 23.3693 79.2031 23.4659 79.5384 23.6591C79.8764 23.8523 80.1378 24.1321 80.3224 24.4986C80.5099 24.8651 80.6023 25.3097 80.5994 25.8324V30H79.0568V26.071C79.0568 25.6335 78.9432 25.2912 78.7159 25.044C78.4915 24.7969 78.1804 24.6733 77.7827 24.6733C77.5128 24.6733 77.2727 24.733 77.0625 24.8523C76.8551 24.9687 76.6918 25.1378 76.5724 25.3594C76.456 25.581 76.3977 25.8494 76.3977 26.1648ZM85.4361 23.4545V24.6477H81.6733V23.4545H85.4361ZM82.6023 21.8864H84.1449V28.0312C84.1449 28.2386 84.1761 28.3977 84.2386 28.5085C84.304 28.6165 84.3892 28.6903 84.4943 28.7301C84.5994 28.7699 84.7159 28.7898 84.8438 28.7898C84.9403 28.7898 85.0284 28.7827 85.108 28.7685C85.1903 28.7543 85.2528 28.7415 85.2955 28.7301L85.5554 29.9361C85.473 29.9645 85.3551 29.9957 85.2017 30.0298C85.0511 30.0639 84.8665 30.0838 84.6477 30.0895C84.2614 30.1009 83.9134 30.0426 83.6037 29.9148C83.294 29.7841 83.0483 29.5824 82.8665 29.3097C82.6875 29.0369 82.5994 28.696 82.6023 28.2869V21.8864ZM86.7262 30V23.4545H88.2688V30H86.7262ZM87.5018 22.5256C87.2575 22.5256 87.0472 22.4446 86.8711 22.2827C86.695 22.1179 86.6069 21.9205 86.6069 21.6903C86.6069 21.4574 86.695 21.2599 86.8711 21.098C87.0472 20.9332 87.2575 20.8509 87.5018 20.8509C87.7489 20.8509 87.9592 20.9332 88.1325 21.098C88.3086 21.2599 88.3967 21.4574 88.3967 21.6903C88.3967 21.9205 88.3086 22.1179 88.1325 22.2827C87.9592 22.4446 87.7489 22.5256 87.5018 22.5256ZM92.7102 30.1278C92.071 30.1278 91.517 29.9872 91.0483 29.706C90.5795 29.4247 90.2159 29.0312 89.9574 28.5256C89.7017 28.0199 89.5739 27.429 89.5739 26.7528C89.5739 26.0767 89.7017 25.4844 89.9574 24.9759C90.2159 24.4673 90.5795 24.0724 91.0483 23.7912C91.517 23.5099 92.071 23.3693 92.7102 23.3693C93.3494 23.3693 93.9034 23.5099 94.3722 23.7912C94.8409 24.0724 95.2031 24.4673 95.4588 24.9759C95.7173 25.4844 95.8466 26.0767 95.8466 26.7528C95.8466 27.429 95.7173 28.0199 95.4588 28.5256C95.2031 29.0312 94.8409 29.4247 94.3722 29.706C93.9034 29.9872 93.3494 30.1278 92.7102 30.1278ZM92.7188 28.892C93.0653 28.892 93.3551 28.7969 93.5881 28.6065C93.821 28.4134 93.9943 28.1548 94.108 27.831C94.2244 27.5071 94.2827 27.1463 94.2827 26.7486C94.2827 26.348 94.2244 25.9858 94.108 25.6619C93.9943 25.3352 93.821 25.0753 93.5881 24.8821C93.3551 24.6889 93.0653 24.5923 92.7188 24.5923C92.3636 24.5923 92.0682 24.6889 91.8324 24.8821C91.5994 25.0753 91.4247 25.3352 91.3082 25.6619C91.1946 25.9858 91.1378 26.348 91.1378 26.7486C91.1378 27.1463 91.1946 27.5071 91.3082 27.831C91.4247 28.1548 91.5994 28.4134 91.8324 28.6065C92.0682 28.7969 92.3636 28.892 92.7188 28.892ZM98.6985 26.1648V30H97.1559V23.4545H98.6303V24.5668H98.707C98.8576 24.2003 99.0977 23.9091 99.4272 23.6932C99.7596 23.4773 100.17 23.3693 100.659 23.3693C101.11 23.3693 101.504 23.4659 101.839 23.6591C102.177 23.8523 102.439 24.1321 102.623 24.4986C102.811 24.8651 102.903 25.3097 102.9 25.8324V30H101.358V26.071C101.358 25.6335 101.244 25.2912 101.017 25.044C100.792 24.7969 100.481 24.6733 100.083 24.6733C99.8136 24.6733 99.5735 24.733 99.3633 24.8523C99.1559 24.9687 98.9925 25.1378 98.8732 25.3594C98.7567 25.581 98.6985 25.8494 98.6985 26.1648ZM2.33523 41.1648V45H0.792614V36.2727H2.30114V39.5668H2.37784C2.53125 39.1974 2.76847 38.9062 3.08949 38.6932C3.41335 38.4773 3.82528 38.3693 4.32528 38.3693C4.77983 38.3693 5.17614 38.4645 5.5142 38.6548C5.85227 38.8452 6.11364 39.1236 6.2983 39.4901C6.4858 39.8565 6.57955 40.304 6.57955 40.8324V45H5.03693V41.071C5.03693 40.6307 4.9233 40.2884 4.69602 40.044C4.47159 39.7969 4.15625 39.6733 3.75 39.6733C3.47727 39.6733 3.23295 39.733 3.01705 39.8523C2.80398 39.9687 2.63636 40.1378 2.5142 40.3594C2.39489 40.581 2.33523 40.8494 2.33523 41.1648ZM11.0497 45.1278C10.3935 45.1278 9.8267 44.9915 9.34943 44.7188C8.875 44.4432 8.50994 44.054 8.25426 43.5511C7.99858 43.0455 7.87074 42.4503 7.87074 41.7656C7.87074 41.0923 7.99858 40.5014 8.25426 39.9929C8.51278 39.4815 8.87358 39.0838 9.33665 38.7997C9.79972 38.5128 10.3438 38.3693 10.9688 38.3693C11.3722 38.3693 11.7528 38.4347 12.1108 38.5653C12.4716 38.6932 12.7898 38.892 13.0653 39.1619C13.3438 39.4318 13.5625 39.7756 13.7216 40.1932C13.8807 40.608 13.9602 41.1023 13.9602 41.6761V42.1491H8.59517V41.1094H12.4815C12.4787 40.8139 12.4148 40.5511 12.2898 40.321C12.1648 40.0881 11.9901 39.9048 11.7656 39.7713C11.544 39.6378 11.2855 39.571 10.9901 39.571C10.6747 39.571 10.3977 39.6477 10.1591 39.8011C9.92045 39.9517 9.73438 40.1506 9.60085 40.3977C9.47017 40.642 9.40341 40.9105 9.40057 41.2031V42.1108C9.40057 42.4915 9.47017 42.8182 9.60938 43.0909C9.74858 43.3608 9.94318 43.5682 10.1932 43.7131C10.4432 43.8551 10.7358 43.9261 11.071 43.9261C11.2955 43.9261 11.4986 43.8949 11.6804 43.8324C11.8622 43.767 12.0199 43.6719 12.1534 43.5469C12.2869 43.4219 12.3878 43.267 12.456 43.0824L13.8963 43.2443C13.8054 43.625 13.6321 43.9574 13.3764 44.2415C13.1236 44.5227 12.7997 44.7415 12.4048 44.8977C12.0099 45.0511 11.5582 45.1278 11.0497 45.1278ZM17.1488 45.1321C16.734 45.1321 16.3604 45.0582 16.0281 44.9105C15.6985 44.7599 15.4371 44.5384 15.244 44.2457C15.0536 43.9531 14.9585 43.5923 14.9585 43.1634C14.9585 42.794 15.0266 42.4886 15.163 42.2472C15.2994 42.0057 15.4854 41.8125 15.7212 41.6676C15.957 41.5227 16.2227 41.4134 16.5181 41.3395C16.8164 41.2628 17.1246 41.2074 17.4428 41.1733C17.8263 41.1335 18.1374 41.098 18.3761 41.0668C18.6147 41.0327 18.788 40.9815 18.896 40.9134C19.0067 40.8423 19.0621 40.733 19.0621 40.5852V40.5597C19.0621 40.2386 18.967 39.9901 18.7766 39.8139C18.5863 39.6378 18.3121 39.5497 17.9542 39.5497C17.5763 39.5497 17.2766 39.6321 17.055 39.7969C16.8363 39.9616 16.6886 40.1562 16.6119 40.3807L15.1715 40.1761C15.2852 39.7784 15.4727 39.446 15.734 39.179C15.9954 38.9091 16.315 38.7074 16.6928 38.5739C17.0707 38.4375 17.4883 38.3693 17.9457 38.3693C18.261 38.3693 18.5749 38.4062 18.8874 38.4801C19.1999 38.554 19.4854 38.6761 19.744 38.8466C20.0025 39.0142 20.2099 39.2429 20.3661 39.5327C20.5252 39.8224 20.6048 40.1847 20.6048 40.6193V45H19.1218V44.1009H19.0707C18.9769 44.2827 18.8448 44.4531 18.6744 44.6122C18.5067 44.7685 18.2951 44.8949 18.0394 44.9915C17.7866 45.0852 17.4897 45.1321 17.1488 45.1321ZM17.5494 43.9986C17.859 43.9986 18.1275 43.9375 18.3548 43.8153C18.582 43.6903 18.7567 43.5256 18.8789 43.321C19.0039 43.1165 19.0664 42.8935 19.0664 42.652V41.8807C19.0181 41.9205 18.9357 41.9574 18.8192 41.9915C18.7056 42.0256 18.5778 42.0554 18.4357 42.081C18.2937 42.1065 18.1531 42.1293 18.0138 42.1491C17.8746 42.169 17.7539 42.1861 17.6516 42.2003C17.4215 42.2315 17.2156 42.2827 17.0337 42.3537C16.8519 42.4247 16.7085 42.5241 16.6033 42.652C16.4982 42.777 16.4457 42.9389 16.4457 43.1378C16.4457 43.4219 16.5494 43.6364 16.7567 43.7812C16.9641 43.9261 17.2283 43.9986 17.5494 43.9986ZM25.4244 38.4545V39.6477H21.6616V38.4545H25.4244ZM22.5906 36.8864H24.1332V43.0312C24.1332 43.2386 24.1644 43.3977 24.2269 43.5085C24.2923 43.6165 24.3775 43.6903 24.4826 43.7301C24.5877 43.7699 24.7042 43.7898 24.832 43.7898C24.9286 43.7898 25.0167 43.7827 25.0962 43.7685C25.1786 43.7543 25.2411 43.7415 25.2837 43.7301L25.5437 44.9361C25.4613 44.9645 25.3434 44.9957 25.19 45.0298C25.0394 45.0639 24.8548 45.0838 24.636 45.0895C24.2496 45.1009 23.9016 45.0426 23.592 44.9148C23.2823 44.7841 23.0366 44.5824 22.8548 44.3097C22.6758 44.0369 22.5877 43.696 22.5906 43.2869V36.8864ZM26.7145 45V38.4545H28.1889V39.5668H28.2656C28.402 39.1918 28.6278 38.8991 28.9432 38.6889C29.2585 38.4759 29.6349 38.3693 30.0724 38.3693C30.5156 38.3693 30.8892 38.4773 31.1932 38.6932C31.5 38.9062 31.7159 39.1974 31.8409 39.5668H31.9091C32.054 39.2031 32.2983 38.9134 32.642 38.6974C32.9886 38.4787 33.3991 38.3693 33.8736 38.3693C34.4759 38.3693 34.9673 38.5597 35.348 38.9403C35.7287 39.321 35.919 39.8764 35.919 40.6065V45H34.3722V40.8452C34.3722 40.4389 34.2642 40.142 34.0483 39.9545C33.8324 39.7642 33.5682 39.669 33.2557 39.669C32.8835 39.669 32.5923 39.7855 32.3821 40.0185C32.1747 40.2486 32.071 40.5483 32.071 40.9176V45H30.5582V40.7812C30.5582 40.4432 30.456 40.1733 30.2514 39.9716C30.0497 39.7699 29.7855 39.669 29.4588 39.669C29.2372 39.669 29.0355 39.7259 28.8537 39.8395C28.6719 39.9503 28.527 40.108 28.419 40.3125C28.3111 40.5142 28.2571 40.75 28.2571 41.0199V45H26.7145ZM39.3675 45.1321C38.9528 45.1321 38.5792 45.0582 38.2468 44.9105C37.9173 44.7599 37.6559 44.5384 37.4627 44.2457C37.2724 43.9531 37.1772 43.5923 37.1772 43.1634C37.1772 42.794 37.2454 42.4886 37.3817 42.2472C37.5181 42.0057 37.7042 41.8125 37.94 41.6676C38.1758 41.5227 38.4414 41.4134 38.7369 41.3395C39.0352 41.2628 39.3434 41.2074 39.6616 41.1733C40.0451 41.1335 40.3562 41.098 40.5948 41.0668C40.8335 41.0327 41.0067 40.9815 41.1147 40.9134C41.2255 40.8423 41.2809 40.733 41.2809 40.5852V40.5597C41.2809 40.2386 41.1857 39.9901 40.9954 39.8139C40.805 39.6378 40.5309 39.5497 40.1729 39.5497C39.7951 39.5497 39.4954 39.6321 39.2738 39.7969C39.055 39.9616 38.9073 40.1562 38.8306 40.3807L37.3903 40.1761C37.5039 39.7784 37.6914 39.446 37.9528 39.179C38.2141 38.9091 38.5337 38.7074 38.9116 38.5739C39.2894 38.4375 39.707 38.3693 40.1644 38.3693C40.4798 38.3693 40.7937 38.4062 41.1062 38.4801C41.4187 38.554 41.7042 38.6761 41.9627 38.8466C42.2212 39.0142 42.4286 39.2429 42.5849 39.5327C42.744 39.8224 42.8235 40.1847 42.8235 40.6193V45H41.3406V44.1009H41.2894C41.1957 44.2827 41.0636 44.4531 40.8931 44.6122C40.7255 44.7685 40.5138 44.8949 40.2582 44.9915C40.0053 45.0852 39.7085 45.1321 39.3675 45.1321ZM39.7681 43.9986C40.0778 43.9986 40.3462 43.9375 40.5735 43.8153C40.8008 43.6903 40.9755 43.5256 41.0977 43.321C41.2227 43.1165 41.2852 42.8935 41.2852 42.652V41.8807C41.2369 41.9205 41.1545 41.9574 41.038 41.9915C40.9244 42.0256 40.7965 42.0554 40.6545 42.081C40.5124 42.1065 40.3718 42.1293 40.2326 42.1491C40.0934 42.169 39.9727 42.1861 39.8704 42.2003C39.6403 42.2315 39.4343 42.2827 39.2525 42.3537C39.0707 42.4247 38.9272 42.5241 38.8221 42.652C38.717 42.777 38.6644 42.9389 38.6644 43.1378C38.6644 43.4219 38.7681 43.6364 38.9755 43.7812C39.1829 43.9261 39.4471 43.9986 39.7681 43.9986ZM44.3746 47.4545V38.4545H45.8917V39.5369H45.9812C46.0607 39.3778 46.1729 39.2088 46.3178 39.0298C46.4627 38.848 46.6587 38.6932 46.9059 38.5653C47.1531 38.4347 47.4684 38.3693 47.8519 38.3693C48.3576 38.3693 48.8136 38.4986 49.2198 38.7571C49.6289 39.0128 49.9528 39.392 50.1914 39.8949C50.4329 40.3949 50.5536 41.0085 50.5536 41.7358C50.5536 42.4545 50.4357 43.0653 50.1999 43.5682C49.9641 44.071 49.6431 44.4545 49.2369 44.7188C48.8306 44.983 48.3704 45.1151 47.8562 45.1151C47.4812 45.1151 47.1701 45.0526 46.9229 44.9276C46.6758 44.8026 46.4769 44.652 46.3263 44.4759C46.1786 44.2969 46.0636 44.1278 45.9812 43.9688H45.9173V47.4545H44.3746ZM45.8874 41.7273C45.8874 42.1506 45.9471 42.5213 46.0664 42.8395C46.1886 43.1577 46.3633 43.4062 46.5906 43.5852C46.8207 43.7614 47.0991 43.8494 47.4258 43.8494C47.7667 43.8494 48.0522 43.7585 48.2823 43.5767C48.5124 43.392 48.6857 43.1406 48.8022 42.8224C48.9215 42.5014 48.9812 42.1364 48.9812 41.7273C48.9812 41.321 48.9229 40.9602 48.8065 40.6449C48.69 40.3295 48.5167 40.0824 48.2866 39.9034C48.0565 39.7244 47.7695 39.6349 47.4258 39.6349C47.0962 39.6349 46.8164 39.7216 46.5863 39.8949C46.3562 40.0682 46.1815 40.3111 46.0621 40.6236C45.9457 40.9361 45.8874 41.304 45.8874 41.7273ZM57.0479 40.1847L55.6417 40.3381C55.6019 40.196 55.5323 40.0625 55.4329 39.9375C55.3363 39.8125 55.2056 39.7116 55.0408 39.6349C54.8761 39.5582 54.6744 39.5199 54.4357 39.5199C54.1147 39.5199 53.8448 39.5895 53.6261 39.7287C53.4102 39.8679 53.3036 40.0483 53.3065 40.2699C53.3036 40.4602 53.3732 40.6151 53.5153 40.7344C53.6602 40.8537 53.8988 40.9517 54.2312 41.0284L55.3477 41.267C55.967 41.4006 56.4272 41.6122 56.7283 41.902C57.0323 42.1918 57.1857 42.571 57.1886 43.0398C57.1857 43.4517 57.065 43.8153 56.8263 44.1307C56.5906 44.4432 56.2624 44.6875 55.842 44.8636C55.4215 45.0398 54.9386 45.1278 54.3931 45.1278C53.592 45.1278 52.9471 44.9602 52.4585 44.625C51.9698 44.2869 51.6786 43.8168 51.5849 43.2145L53.0891 43.0696C53.1573 43.3651 53.3022 43.5881 53.5238 43.7386C53.7454 43.8892 54.0337 43.9645 54.3888 43.9645C54.7553 43.9645 55.0494 43.8892 55.271 43.7386C55.4954 43.5881 55.6076 43.402 55.6076 43.1804C55.6076 42.9929 55.5352 42.8381 55.3903 42.7159C55.2482 42.5937 55.0266 42.5 54.7255 42.4347L53.609 42.2003C52.9812 42.0696 52.5167 41.8494 52.2156 41.5398C51.9144 41.2273 51.7653 40.8324 51.7681 40.3551C51.7653 39.9517 51.8746 39.6023 52.0962 39.3068C52.3207 39.0085 52.6317 38.7784 53.0295 38.6165C53.43 38.4517 53.8917 38.3693 54.4144 38.3693C55.1815 38.3693 55.7852 38.5327 56.2255 38.8594C56.6687 39.1861 56.9428 39.6278 57.0479 40.1847ZM61.4371 45V38.4545H62.9116V39.5668H62.9883C63.1246 39.1918 63.3505 38.8991 63.6658 38.6889C63.9812 38.4759 64.3576 38.3693 64.7951 38.3693C65.2383 38.3693 65.6119 38.4773 65.9158 38.6932C66.2227 38.9062 66.4386 39.1974 66.5636 39.5668H66.6317C66.7766 39.2031 67.021 38.9134 67.3647 38.6974C67.7113 38.4787 68.1218 38.3693 68.5962 38.3693C69.1985 38.3693 69.69 38.5597 70.0707 38.9403C70.4513 39.321 70.6417 39.8764 70.6417 40.6065V45H69.0948V40.8452C69.0948 40.4389 68.9869 40.142 68.771 39.9545C68.555 39.7642 68.2908 39.669 67.9783 39.669C67.6062 39.669 67.315 39.7855 67.1048 40.0185C66.8974 40.2486 66.7937 40.5483 66.7937 40.9176V45H65.2809V40.7812C65.2809 40.4432 65.1786 40.1733 64.9741 39.9716C64.7724 39.7699 64.5082 39.669 64.1815 39.669C63.9599 39.669 63.7582 39.7259 63.5763 39.8395C63.3945 39.9503 63.2496 40.108 63.1417 40.3125C63.0337 40.5142 62.9798 40.75 62.9798 41.0199V45H61.4371ZM76.3786 42.2472V38.4545H77.9212V45H76.4254V43.8366H76.3572C76.2095 44.2031 75.9666 44.5028 75.6286 44.7358C75.2933 44.9687 74.88 45.0852 74.3885 45.0852C73.9595 45.0852 73.5803 44.9901 73.2507 44.7997C72.924 44.6065 72.6683 44.3267 72.4837 43.9602C72.299 43.5909 72.2067 43.1449 72.2067 42.6222V38.4545H73.7493V42.3835C73.7493 42.7983 73.8629 43.1278 74.0902 43.3722C74.3175 43.6165 74.6158 43.7386 74.9851 43.7386C75.2124 43.7386 75.4325 43.6832 75.6456 43.5724C75.8587 43.4616 76.0334 43.2969 76.1697 43.0781C76.3089 42.8565 76.3786 42.5795 76.3786 42.2472ZM82.3626 45.1278C81.7092 45.1278 81.1481 44.9844 80.6793 44.6974C80.2134 44.4105 79.854 44.0142 79.6012 43.5085C79.3512 43 79.2262 42.4148 79.2262 41.7528C79.2262 41.0881 79.354 40.5014 79.6097 39.9929C79.8654 39.4815 80.2262 39.0838 80.6921 38.7997C81.1609 38.5128 81.7148 38.3693 82.354 38.3693C82.8853 38.3693 83.3555 38.4673 83.7646 38.6634C84.1765 38.8565 84.5046 39.1307 84.7489 39.4858C84.9933 39.8381 85.1325 40.25 85.1665 40.7216H83.6921C83.6325 40.4062 83.4904 40.1435 83.266 39.9332C83.0444 39.7202 82.7475 39.6136 82.3754 39.6136C82.06 39.6136 81.783 39.6989 81.5444 39.8693C81.3058 40.0369 81.1197 40.2784 80.9862 40.5938C80.8555 40.9091 80.7901 41.2869 80.7901 41.7273C80.7901 42.1733 80.8555 42.5568 80.9862 42.8778C81.1168 43.196 81.3001 43.4418 81.5359 43.6151C81.7745 43.7855 82.0543 43.8707 82.3754 43.8707C82.6026 43.8707 82.8058 43.8281 82.9847 43.7429C83.1665 43.6548 83.3185 43.5284 83.4407 43.3636C83.5629 43.1989 83.6467 42.9986 83.6921 42.7628H85.1665C85.1296 43.2259 84.9933 43.6364 84.7575 43.9943C84.5217 44.3494 84.2006 44.6278 83.7944 44.8295C83.3881 45.0284 82.9109 45.1278 82.3626 45.1278ZM87.9759 41.1648V45H86.4332V36.2727H87.9418V39.5668H88.0185C88.1719 39.1974 88.4091 38.9062 88.7301 38.6932C89.054 38.4773 89.4659 38.3693 89.9659 38.3693C90.4205 38.3693 90.8168 38.4645 91.1548 38.6548C91.4929 38.8452 91.7543 39.1236 91.9389 39.4901C92.1264 39.8565 92.2202 40.304 92.2202 40.8324V45H90.6776V41.071C90.6776 40.6307 90.5639 40.2884 90.3366 40.044C90.1122 39.7969 89.7969 39.6733 89.3906 39.6733C89.1179 39.6733 88.8736 39.733 88.6577 39.8523C88.4446 39.9687 88.277 40.1378 88.1548 40.3594C88.0355 40.581 87.9759 40.8494 87.9759 41.1648ZM0.860795 60V51.2727H2.40341V54.5369H2.46733C2.54688 54.3778 2.65909 54.2088 2.80398 54.0298C2.94886 53.848 3.14489 53.6932 3.39205 53.5653C3.6392 53.4347 3.95455 53.3693 4.33807 53.3693C4.84375 53.3693 5.29972 53.4986 5.70597 53.7571C6.11506 54.0128 6.43892 54.392 6.67756 54.8949C6.91903 55.3949 7.03977 56.0085 7.03977 56.7358C7.03977 57.4545 6.92188 58.0653 6.68608 58.5682C6.45028 59.071 6.12926 59.4545 5.72301 59.7188C5.31676 59.983 4.85653 60.1151 4.34233 60.1151C3.96733 60.1151 3.65625 60.0526 3.40909 59.9276C3.16193 59.8026 2.96307 59.652 2.8125 59.4759C2.66477 59.2969 2.54972 59.1278 2.46733 58.9688H2.37784V60H0.860795ZM2.37358 56.7273C2.37358 57.1506 2.43324 57.5213 2.55256 57.8395C2.67472 58.1577 2.84943 58.4062 3.0767 58.5852C3.30682 58.7614 3.58523 58.8494 3.91193 58.8494C4.25284 58.8494 4.53835 58.7585 4.76847 58.5767C4.99858 58.392 5.17188 58.1406 5.28835 57.8224C5.40767 57.5014 5.46733 57.1364 5.46733 56.7273C5.46733 56.321 5.40909 55.9602 5.29261 55.6449C5.17614 55.3295 5.00284 55.0824 4.77273 54.9034C4.54261 54.7244 4.25568 54.6349 3.91193 54.6349C3.58239 54.6349 3.30256 54.7216 3.07244 54.8949C2.84233 55.0682 2.66761 55.3111 2.5483 55.6236C2.43182 55.9361 2.37358 56.304 2.37358 56.7273ZM11.2489 60.1278C10.5927 60.1278 10.0259 59.9915 9.54865 59.7188C9.07422 59.4432 8.70916 59.054 8.45348 58.5511C8.1978 58.0455 8.06996 57.4503 8.06996 56.7656C8.06996 56.0923 8.1978 55.5014 8.45348 54.9929C8.712 54.4815 9.0728 54.0838 9.53587 53.7997C9.99893 53.5128 10.543 53.3693 11.168 53.3693C11.5714 53.3693 11.9521 53.4347 12.31 53.5653C12.6708 53.6932 12.989 53.892 13.2646 54.1619C13.543 54.4318 13.7617 54.7756 13.9208 55.1932C14.0799 55.608 14.1594 56.1023 14.1594 56.6761V57.1491H8.79439V56.1094H12.6808C12.6779 55.8139 12.614 55.5511 12.489 55.321C12.364 55.0881 12.1893 54.9048 11.9648 54.7713C11.7433 54.6378 11.4847 54.571 11.1893 54.571C10.8739 54.571 10.5969 54.6477 10.3583 54.8011C10.1197 54.9517 9.93359 55.1506 9.80007 55.3977C9.66939 55.642 9.60263 55.9105 9.59979 56.2031V57.1108C9.59979 57.4915 9.66939 57.8182 9.80859 58.0909C9.9478 58.3608 10.1424 58.5682 10.3924 58.7131C10.6424 58.8551 10.935 58.9261 11.2702 58.9261C11.4947 58.9261 11.6978 58.8949 11.8796 58.8324C12.0614 58.767 12.2191 58.6719 12.3526 58.5469C12.4862 58.4219 12.587 58.267 12.6552 58.0824L14.0955 58.2443C14.0046 58.625 13.8313 58.9574 13.5756 59.2415C13.3228 59.5227 12.9989 59.7415 12.604 59.8977C12.2092 60.0511 11.7575 60.1278 11.2489 60.1278ZM18.733 53.4545V54.6477H14.9702V53.4545H18.733ZM15.8991 51.8864H17.4418V58.0312C17.4418 58.2386 17.473 58.3977 17.5355 58.5085C17.6009 58.6165 17.6861 58.6903 17.7912 58.7301C17.8963 58.7699 18.0128 58.7898 18.1406 58.7898C18.2372 58.7898 18.3253 58.7827 18.4048 58.7685C18.4872 58.7543 18.5497 58.7415 18.5923 58.7301L18.8523 59.9361C18.7699 59.9645 18.652 59.9957 18.4986 60.0298C18.348 60.0639 18.1634 60.0838 17.9446 60.0895C17.5582 60.1009 17.2102 60.0426 16.9006 59.9148C16.5909 59.7841 16.3452 59.5824 16.1634 59.3097C15.9844 59.0369 15.8963 58.696 15.8991 58.2869V51.8864ZM23.2915 53.4545V54.6477H19.5288V53.4545H23.2915ZM20.4577 51.8864H22.0004V58.0312C22.0004 58.2386 22.0316 58.3977 22.0941 58.5085C22.1594 58.6165 22.2447 58.6903 22.3498 58.7301C22.4549 58.7699 22.5714 58.7898 22.6992 58.7898C22.7958 58.7898 22.8839 58.7827 22.9634 58.7685C23.0458 58.7543 23.1083 58.7415 23.1509 58.7301L23.4109 59.9361C23.3285 59.9645 23.2106 59.9957 23.0572 60.0298C22.9066 60.0639 22.7219 60.0838 22.5032 60.0895C22.1168 60.1009 21.7688 60.0426 21.4592 59.9148C21.1495 59.7841 20.9038 59.5824 20.7219 59.3097C20.543 59.0369 20.4549 58.696 20.4577 58.2869V51.8864ZM27.4091 60.1278C26.7528 60.1278 26.1861 59.9915 25.7088 59.7188C25.2344 59.4432 24.8693 59.054 24.6136 58.5511C24.358 58.0455 24.2301 57.4503 24.2301 56.7656C24.2301 56.0923 24.358 55.5014 24.6136 54.9929C24.8722 54.4815 25.233 54.0838 25.696 53.7997C26.1591 53.5128 26.7031 53.3693 27.3281 53.3693C27.7315 53.3693 28.1122 53.4347 28.4702 53.5653C28.831 53.6932 29.1491 53.892 29.4247 54.1619C29.7031 54.4318 29.9219 54.7756 30.081 55.1932C30.2401 55.608 30.3196 56.1023 30.3196 56.6761V57.1491H24.9545V56.1094H28.8409C28.8381 55.8139 28.7741 55.5511 28.6491 55.321C28.5241 55.0881 28.3494 54.9048 28.125 54.7713C27.9034 54.6378 27.6449 54.571 27.3494 54.571C27.0341 54.571 26.7571 54.6477 26.5185 54.8011C26.2798 54.9517 26.0938 55.1506 25.9602 55.3977C25.8295 55.642 25.7628 55.9105 25.7599 56.2031V57.1108C25.7599 57.4915 25.8295 57.8182 25.9688 58.0909C26.108 58.3608 26.3026 58.5682 26.5526 58.7131C26.8026 58.8551 27.0952 58.9261 27.4304 58.9261C27.6548 58.9261 27.858 58.8949 28.0398 58.8324C28.2216 58.767 28.3793 58.6719 28.5128 58.5469C28.6463 58.4219 28.7472 58.267 28.8153 58.0824L30.2557 58.2443C30.1648 58.625 29.9915 58.9574 29.7358 59.2415C29.483 59.5227 29.1591 59.7415 28.7642 59.8977C28.3693 60.0511 27.9176 60.1278 27.4091 60.1278ZM31.6246 60V53.4545H33.1204V54.5455H33.1886C33.3079 54.1676 33.5124 53.8764 33.8022 53.6719C34.0948 53.4645 34.4286 53.3608 34.8036 53.3608C34.8888 53.3608 34.984 53.3651 35.0891 53.3736C35.1971 53.3793 35.2866 53.3892 35.3576 53.4034V54.8224C35.2923 54.7997 35.1886 54.7798 35.0465 54.7628C34.9073 54.7429 34.7724 54.733 34.6417 54.733C34.3604 54.733 34.1076 54.794 33.8832 54.9162C33.6616 55.0355 33.4869 55.2017 33.359 55.4148C33.2312 55.6278 33.1673 55.8736 33.1673 56.152V60H31.6246ZM38.2702 51.2727L38.1296 57.4347H36.7575L36.6211 51.2727H38.2702ZM37.4435 60.0938C37.185 60.0938 36.9634 60.0028 36.7788 59.821C36.5969 59.6392 36.506 59.4176 36.506 59.1562C36.506 58.9006 36.5969 58.6818 36.7788 58.5C36.9634 58.3182 37.185 58.2273 37.4435 58.2273C37.6964 58.2273 37.9151 58.3182 38.0998 58.5C38.2873 58.6818 38.381 58.9006 38.381 59.1562C38.381 59.3295 38.337 59.4872 38.2489 59.6293C38.1637 59.7713 38.0501 59.8849 37.908 59.9702C37.7688 60.0526 37.614 60.0938 37.4435 60.0938Z" fill="#F3B13E"/>
</svg>
