<svg width="107" height="64" viewBox="0 0 107 64" fill="none" xmlns="http://www.w3.org/2000/svg">
<path d="M2 59.5L9.52813 55.219L9.47155 63.879L2 59.5ZM8.74484 58.7941C12.9981 58.7637 16.3353 58.4176 18.6259 56.8381C20.8385 55.3124 22.25 52.4925 22.25 47L23.75 47C23.75 52.7241 22.272 56.1459 19.4774 58.073C16.7609 59.9462 12.9731 60.2639 8.75558 60.2941L8.74484 58.7941Z" fill="#A1A1A1"/>
<path d="M8.33097 6.76384H6.73722C6.69176 6.50247 6.60795 6.27094 6.4858 6.06924C6.36364 5.86469 6.21165 5.69139 6.02983 5.54935C5.84801 5.4073 5.64063 5.30077 5.40767 5.22975C5.17756 5.15588 4.92898 5.11895 4.66193 5.11895C4.1875 5.11895 3.76705 5.23827 3.40057 5.47691C3.03409 5.7127 2.74716 6.05929 2.53977 6.51668C2.33239 6.97122 2.22869 7.52662 2.22869 8.18287C2.22869 8.85049 2.33239 9.41299 2.53977 9.87037C2.75 10.3249 3.03693 10.6687 3.40057 10.9016C3.76705 11.1317 4.18608 11.2468 4.65767 11.2468C4.91903 11.2468 5.16335 11.2127 5.39062 11.1445C5.62074 11.0735 5.8267 10.9698 6.00852 10.8334C6.19318 10.6971 6.34801 10.5295 6.47301 10.3306C6.60085 10.1317 6.68892 9.90446 6.73722 9.64878L8.33097 9.6573C8.27131 10.0721 8.14205 10.4613 7.94318 10.8249C7.74716 11.1886 7.49006 11.5096 7.17188 11.788C6.85369 12.0636 6.48153 12.2795 6.0554 12.4357C5.62926 12.5891 5.15625 12.6658 4.63636 12.6658C3.86932 12.6658 3.18466 12.4883 2.58239 12.1332C1.98011 11.778 1.50568 11.2653 1.15909 10.5948C0.8125 9.92435 0.639205 9.12037 0.639205 8.18287C0.639205 7.24253 0.81392 6.43855 1.16335 5.77094C1.51278 5.10049 1.98864 4.5877 2.59091 4.23259C3.19318 3.87747 3.875 3.69992 4.63636 3.69992C5.12216 3.69992 5.57386 3.7681 5.99148 3.90446C6.40909 4.04083 6.78125 4.24111 7.10795 4.50532C7.43466 4.76668 7.70313 5.0877 7.91335 5.46838C8.12642 5.84622 8.26563 6.27804 8.33097 6.76384ZM9.71058 12.5465V6.00105H11.2063V7.09196H11.2745C11.3938 6.71412 11.5984 6.42293 11.8881 6.21838C12.1808 6.011 12.5146 5.9073 12.8896 5.9073C12.9748 5.9073 13.07 5.91157 13.1751 5.92009C13.283 5.92577 13.3725 5.93571 13.4435 5.94992V7.36895C13.3782 7.34622 13.2745 7.32634 13.1325 7.30929C12.9933 7.28941 12.8583 7.27946 12.7276 7.27946C12.4464 7.27946 12.1935 7.34054 11.9691 7.4627C11.7475 7.58202 11.5728 7.74821 11.445 7.96128C11.3171 8.17435 11.2532 8.42009 11.2532 8.6985V12.5465H9.71058ZM17.054 12.6743C16.4148 12.6743 15.8608 12.5337 15.392 12.2525C14.9233 11.9712 14.5597 11.5778 14.3011 11.0721C14.0455 10.5664 13.9176 9.97549 13.9176 9.29935C13.9176 8.62321 14.0455 8.03088 14.3011 7.52236C14.5597 7.01384 14.9233 6.61895 15.392 6.3377C15.8608 6.05645 16.4148 5.91583 17.054 5.91583C17.6932 5.91583 18.2472 6.05645 18.7159 6.3377C19.1847 6.61895 19.5469 7.01384 19.8026 7.52236C20.0611 8.03088 20.1903 8.62321 20.1903 9.29935C20.1903 9.97549 20.0611 10.5664 19.8026 11.0721C19.5469 11.5778 19.1847 11.9712 18.7159 12.2525C18.2472 12.5337 17.6932 12.6743 17.054 12.6743ZM17.0625 11.4386C17.4091 11.4386 17.6989 11.3434 17.9318 11.153C18.1648 10.9599 18.3381 10.7013 18.4517 10.3775C18.5682 10.0536 18.6264 9.69282 18.6264 9.29509C18.6264 8.89452 18.5682 8.5323 18.4517 8.20844C18.3381 7.88174 18.1648 7.62179 17.9318 7.42861C17.6989 7.23543 17.4091 7.13884 17.0625 7.13884C16.7074 7.13884 16.4119 7.23543 16.1761 7.42861C15.9432 7.62179 15.7685 7.88174 15.652 8.20844C15.5384 8.5323 15.4815 8.89452 15.4815 9.29509C15.4815 9.69282 15.5384 10.0536 15.652 10.3775C15.7685 10.7013 15.9432 10.9599 16.1761 11.153C16.4119 11.3434 16.7074 11.4386 17.0625 11.4386ZM26.6729 7.73117L25.2667 7.88458C25.2269 7.74253 25.1573 7.60901 25.0579 7.48401C24.9613 7.35901 24.8306 7.25816 24.6658 7.18145C24.5011 7.10475 24.2994 7.06639 24.0607 7.06639C23.7397 7.06639 23.4698 7.136 23.2511 7.2752C23.0352 7.41441 22.9286 7.5948 22.9315 7.81639C22.9286 8.00674 22.9982 8.16157 23.1403 8.28088C23.2852 8.4002 23.5238 8.49821 23.8562 8.57492L24.9727 8.81355C25.592 8.94708 26.0522 9.15872 26.3533 9.4485C26.6573 9.73827 26.8107 10.1175 26.8136 10.5863C26.8107 10.9982 26.69 11.3618 26.4513 11.6772C26.2156 11.9897 25.8874 12.234 25.467 12.4101C25.0465 12.5863 24.5636 12.6743 24.0181 12.6743C23.217 12.6743 22.5721 12.5067 22.0835 12.1715C21.5948 11.8334 21.3036 11.3633 21.2099 10.761L22.7141 10.6161C22.7823 10.9116 22.9272 11.1346 23.1488 11.2851C23.3704 11.4357 23.6587 11.511 24.0138 11.511C24.3803 11.511 24.6744 11.4357 24.896 11.2851C25.1204 11.1346 25.2326 10.9485 25.2326 10.7269C25.2326 10.5394 25.1602 10.3846 25.0153 10.2624C24.8732 10.1403 24.6516 10.0465 24.3505 9.98117L23.234 9.74679C22.6062 9.61611 22.1417 9.39594 21.8406 9.08628C21.5394 8.77378 21.3903 8.3789 21.3931 7.90162C21.3903 7.49821 21.4996 7.14878 21.7212 6.85333C21.9457 6.55503 22.2567 6.32492 22.6545 6.16299C23.055 5.99821 23.5167 5.91583 24.0394 5.91583C24.8065 5.91583 25.4102 6.07918 25.8505 6.40588C26.2937 6.73259 26.5678 7.17435 26.6729 7.73117ZM33.2589 7.73117L31.8526 7.88458C31.8129 7.74253 31.7433 7.60901 31.6438 7.48401C31.5472 7.35901 31.4165 7.25816 31.2518 7.18145C31.087 7.10475 30.8853 7.06639 30.6467 7.06639C30.3256 7.06639 30.0558 7.136 29.837 7.2752C29.6211 7.41441 29.5146 7.5948 29.5174 7.81639C29.5146 8.00674 29.5842 8.16157 29.7262 8.28088C29.8711 8.4002 30.1097 8.49821 30.4421 8.57492L31.5586 8.81355C32.1779 8.94708 32.6381 9.15872 32.9393 9.4485C33.2433 9.73827 33.3967 10.1175 33.3995 10.5863C33.3967 10.9982 33.2759 11.3618 33.0373 11.6772C32.8015 11.9897 32.4734 12.234 32.0529 12.4101C31.6325 12.5863 31.1495 12.6743 30.604 12.6743C29.8029 12.6743 29.158 12.5067 28.6694 12.1715C28.1808 11.8334 27.8896 11.3633 27.7958 10.761L29.3001 10.6161C29.3683 10.9116 29.5131 11.1346 29.7347 11.2851C29.9563 11.4357 30.2447 11.511 30.5998 11.511C30.9663 11.511 31.2603 11.4357 31.4819 11.2851C31.7063 11.1346 31.8185 10.9485 31.8185 10.7269C31.8185 10.5394 31.7461 10.3846 31.6012 10.2624C31.4592 10.1403 31.2376 10.0465 30.9364 9.98117L29.82 9.74679C29.1921 9.61611 28.7276 9.39594 28.4265 9.08628C28.1254 8.77378 27.9762 8.3789 27.979 7.90162C27.9762 7.49821 28.0856 7.14878 28.3072 6.85333C28.5316 6.55503 28.8427 6.32492 29.2404 6.16299C29.641 5.99821 30.1026 5.91583 30.6254 5.91583C31.3924 5.91583 31.9961 6.07918 32.4364 6.40588C32.8796 6.73259 33.1538 7.17435 33.2589 7.73117ZM38.837 12.5465H37.1495L40.2219 3.81924H42.1737L45.2504 12.5465H43.5629L41.2319 5.60901H41.1637L38.837 12.5465ZM38.8924 9.12463H43.4947V10.3945H38.8924V9.12463ZM49.19 6.00105V7.19424H45.4272V6.00105H49.19ZM46.3562 4.43287H47.8988V10.5778C47.8988 10.7851 47.93 10.9442 47.9925 11.055C48.0579 11.163 48.1431 11.2368 48.2482 11.2766C48.3533 11.3164 48.4698 11.3363 48.5977 11.3363C48.6942 11.3363 48.7823 11.3292 48.8619 11.315C48.9442 11.3008 49.0067 11.288 49.0494 11.2766L49.3093 12.4826C49.2269 12.511 49.109 12.5422 48.9556 12.5763C48.805 12.6104 48.6204 12.6303 48.4016 12.636C48.0153 12.6474 47.6673 12.5891 47.3576 12.4613C47.0479 12.3306 46.8022 12.1289 46.6204 11.8562C46.4414 11.5834 46.3533 11.2425 46.3562 10.8334V4.43287ZM53.7486 6.00105V7.19424H49.9858V6.00105H53.7486ZM50.9148 4.43287H52.4574V10.5778C52.4574 10.7851 52.4886 10.9442 52.5511 11.055C52.6165 11.163 52.7017 11.2368 52.8068 11.2766C52.9119 11.3164 53.0284 11.3363 53.1562 11.3363C53.2528 11.3363 53.3409 11.3292 53.4205 11.315C53.5028 11.3008 53.5653 11.288 53.608 11.2766L53.8679 12.4826C53.7855 12.511 53.6676 12.5422 53.5142 12.5763C53.3636 12.6104 53.179 12.6303 52.9602 12.636C52.5739 12.6474 52.2259 12.5891 51.9162 12.4613C51.6065 12.3306 51.3608 12.1289 51.179 11.8562C51 11.5834 50.9119 11.2425 50.9148 10.8334V4.43287ZM57.8661 12.6743C57.2099 12.6743 56.6431 12.538 56.1658 12.2653C55.6914 11.9897 55.3263 11.6005 55.0707 11.0976C54.815 10.592 54.6871 9.99679 54.6871 9.31213C54.6871 8.63884 54.815 8.04793 55.0707 7.53941C55.3292 7.02804 55.69 6.63032 56.1531 6.34622C56.6161 6.05929 57.1602 5.91583 57.7852 5.91583C58.1886 5.91583 58.5692 5.98117 58.9272 6.11185C59.288 6.23969 59.6062 6.43855 59.8817 6.70844C60.1602 6.97833 60.3789 7.32208 60.538 7.73969C60.6971 8.15446 60.7766 8.64878 60.7766 9.22264V9.69566H55.4116V8.65588H59.2979C59.2951 8.36043 59.2312 8.09764 59.1062 7.86753C58.9812 7.63458 58.8065 7.45134 58.582 7.31782C58.3604 7.18429 58.1019 7.11753 57.8065 7.11753C57.4911 7.11753 57.2141 7.19424 56.9755 7.34764C56.7369 7.49821 56.5508 7.69708 56.4173 7.94424C56.2866 8.18855 56.2198 8.45702 56.217 8.74963V9.6573C56.217 10.038 56.2866 10.3647 56.4258 10.6374C56.565 10.9073 56.7596 11.1147 57.0096 11.2596C57.2596 11.4016 57.5522 11.4726 57.8874 11.4726C58.1119 11.4726 58.315 11.4414 58.4968 11.3789C58.6786 11.3136 58.8363 11.2184 58.9698 11.0934C59.1033 10.9684 59.2042 10.8136 59.2724 10.6289L60.7127 10.7908C60.6218 11.1715 60.4485 11.5039 60.1928 11.788C59.94 12.0692 59.6161 12.288 59.2212 12.4442C58.8263 12.5976 58.3746 12.6743 57.8661 12.6743ZM63.6243 8.71128V12.5465H62.0817V6.00105H63.5561V7.11327H63.6328C63.7834 6.74679 64.0234 6.4556 64.353 6.23969C64.6854 6.02378 65.0959 5.91583 65.5845 5.91583C66.0362 5.91583 66.4297 6.01242 66.7649 6.2056C67.103 6.39878 67.3643 6.67861 67.549 7.04509C67.7365 7.41157 67.8288 7.85617 67.826 8.37889V12.5465H66.2834V8.61753C66.2834 8.18003 66.1697 7.8377 65.9425 7.59054C65.718 7.34338 65.407 7.2198 65.0092 7.2198C64.7393 7.2198 64.4993 7.27946 64.2891 7.39878C64.0817 7.51526 63.9183 7.68429 63.799 7.90588C63.6825 8.12747 63.6243 8.39594 63.6243 8.71128ZM72.6626 6.00105V7.19424H68.8999V6.00105H72.6626ZM69.8288 4.43287H71.3714V10.5778C71.3714 10.7851 71.4027 10.9442 71.4652 11.055C71.5305 11.163 71.6158 11.2368 71.7209 11.2766C71.826 11.3164 71.9425 11.3363 72.0703 11.3363C72.1669 11.3363 72.255 11.3292 72.3345 11.315C72.4169 11.3008 72.4794 11.288 72.522 11.2766L72.782 12.4826C72.6996 12.511 72.5817 12.5422 72.4283 12.5763C72.2777 12.6104 72.093 12.6303 71.8743 12.636C71.4879 12.6474 71.1399 12.5891 70.8303 12.4613C70.5206 12.3306 70.2749 12.1289 70.093 11.8562C69.9141 11.5834 69.826 11.2425 69.8288 10.8334V4.43287ZM73.9528 12.5465V6.00105H75.4954V12.5465H73.9528ZM74.7283 5.07208C74.484 5.07208 74.2738 4.99111 74.0977 4.82918C73.9215 4.66441 73.8335 4.46696 73.8335 4.23685C73.8335 4.00389 73.9215 3.80645 74.0977 3.64452C74.2738 3.47975 74.484 3.39736 74.7283 3.39736C74.9755 3.39736 75.1857 3.47975 75.359 3.64452C75.5352 3.80645 75.6232 4.00389 75.6232 4.23685C75.6232 4.46696 75.5352 4.66441 75.359 4.82918C75.1857 4.99111 74.9755 5.07208 74.7283 5.07208ZM79.9368 12.6743C79.2976 12.6743 78.7436 12.5337 78.2749 12.2525C77.8061 11.9712 77.4425 11.5778 77.1839 11.0721C76.9283 10.5664 76.8004 9.97549 76.8004 9.29935C76.8004 8.62321 76.9283 8.03088 77.1839 7.52236C77.4425 7.01384 77.8061 6.61895 78.2749 6.3377C78.7436 6.05645 79.2976 5.91583 79.9368 5.91583C80.576 5.91583 81.13 6.05645 81.5987 6.3377C82.0675 6.61895 82.4297 7.01384 82.6854 7.52236C82.9439 8.03088 83.0732 8.62321 83.0732 9.29935C83.0732 9.97549 82.9439 10.5664 82.6854 11.0721C82.4297 11.5778 82.0675 11.9712 81.5987 12.2525C81.13 12.5337 80.576 12.6743 79.9368 12.6743ZM79.9453 11.4386C80.2919 11.4386 80.5817 11.3434 80.8146 11.153C81.0476 10.9599 81.2209 10.7013 81.3345 10.3775C81.451 10.0536 81.5092 9.69282 81.5092 9.29509C81.5092 8.89452 81.451 8.5323 81.3345 8.20844C81.2209 7.88174 81.0476 7.62179 80.8146 7.42861C80.5817 7.23543 80.2919 7.13884 79.9453 7.13884C79.5902 7.13884 79.2947 7.23543 79.0589 7.42861C78.826 7.62179 78.6513 7.88174 78.5348 8.20844C78.4212 8.5323 78.3643 8.89452 78.3643 9.29509C78.3643 9.69282 78.4212 10.0536 78.5348 10.3775C78.6513 10.7013 78.826 10.9599 79.0589 11.153C79.2947 11.3434 79.5902 11.4386 79.9453 11.4386ZM85.9251 8.71128V12.5465H84.3825V6.00105H85.8569V7.11327H85.9336C86.0842 6.74679 86.3242 6.4556 86.6538 6.23969C86.9862 6.02378 87.3967 5.91583 87.8853 5.91583C88.337 5.91583 88.7305 6.01242 89.0657 6.2056C89.4038 6.39878 89.6651 6.67861 89.8498 7.04509C90.0373 7.41157 90.1296 7.85617 90.1268 8.37889V12.5465H88.5842V8.61753C88.5842 8.18003 88.4705 7.8377 88.2433 7.59054C88.0188 7.34338 87.7077 7.2198 87.31 7.2198C87.0401 7.2198 86.8001 7.27946 86.5898 7.39878C86.3825 7.51526 86.2191 7.68429 86.0998 7.90588C85.9833 8.12747 85.9251 8.39594 85.9251 8.71128ZM3.64773 27.6743C3.00852 27.6743 2.45455 27.5337 1.9858 27.2525C1.51705 26.9712 1.15341 26.5778 0.894886 26.0721C0.639205 25.5664 0.511364 24.9755 0.511364 24.2993C0.511364 23.6232 0.639205 23.0309 0.894886 22.5224C1.15341 22.0138 1.51705 21.619 1.9858 21.3377C2.45455 21.0565 3.00852 20.9158 3.64773 20.9158C4.28693 20.9158 4.84091 21.0565 5.30966 21.3377C5.77841 21.619 6.14063 22.0138 6.39631 22.5224C6.65483 23.0309 6.78409 23.6232 6.78409 24.2993C6.78409 24.9755 6.65483 25.5664 6.39631 26.0721C6.14063 26.5778 5.77841 26.9712 5.30966 27.2525C4.84091 27.5337 4.28693 27.6743 3.64773 27.6743ZM3.65625 26.4386C4.00284 26.4386 4.29261 26.3434 4.52557 26.153C4.75852 25.9599 4.93182 25.7013 5.04545 25.3775C5.16193 25.0536 5.22017 24.6928 5.22017 24.2951C5.22017 23.8945 5.16193 23.5323 5.04545 23.2084C4.93182 22.8817 4.75852 22.6218 4.52557 22.4286C4.29261 22.2354 4.00284 22.1388 3.65625 22.1388C3.30114 22.1388 3.00568 22.2354 2.76989 22.4286C2.53693 22.6218 2.36222 22.8817 2.24574 23.2084C2.1321 23.5323 2.07528 23.8945 2.07528 24.2951C2.07528 24.6928 2.1321 25.0536 2.24574 25.3775C2.36222 25.7013 2.53693 25.9599 2.76989 26.153C3.00568 26.3434 3.30114 26.4386 3.65625 26.4386ZM9.63601 23.7113V27.5465H8.09339V21.0011H9.56783V22.1133H9.64453C9.7951 21.7468 10.0352 21.4556 10.3647 21.2397C10.6971 21.0238 11.1076 20.9158 11.5962 20.9158C12.0479 20.9158 12.4414 21.0124 12.7766 21.2056C13.1147 21.3988 13.3761 21.6786 13.5607 22.0451C13.7482 22.4116 13.8406 22.8562 13.8377 23.3789V27.5465H12.2951V23.6175C12.2951 23.18 12.1815 22.8377 11.9542 22.5905C11.7298 22.3434 11.4187 22.2198 11.021 22.2198C10.7511 22.2198 10.511 22.2795 10.3008 22.3988C10.0934 22.5153 9.93004 22.6843 9.81072 22.9059C9.69425 23.1275 9.63601 23.3959 9.63601 23.7113ZM16.9485 18.8192V27.5465H15.4059V18.8192H16.9485ZM19.4936 30.0011C19.2834 30.0011 19.0888 29.984 18.9098 29.9499C18.7337 29.9187 18.593 29.8817 18.4879 29.8391L18.8459 28.6374C19.0703 28.7028 19.2706 28.734 19.4467 28.7312C19.6229 28.7283 19.7777 28.6729 19.9112 28.565C20.0476 28.4599 20.1626 28.2837 20.2564 28.0366L20.3885 27.6829L18.0149 21.0011H19.6513L21.1598 25.9442H21.228L22.7408 21.0011H24.3814L21.7607 28.3391C21.6385 28.6857 21.4766 28.9826 21.2749 29.2297C21.0732 29.4797 20.826 29.6701 20.5334 29.8008C20.2436 29.9343 19.897 30.0011 19.4936 30.0011ZM29.7763 27.5465L27.9268 21.0011H29.4993L30.6499 25.6033H30.7095L31.8857 21.0011H33.4411L34.6172 25.5778H34.6811L35.8146 21.0011H37.3913L35.5376 27.5465H33.9311L32.7038 23.1232H32.6143L31.3871 27.5465H29.7763ZM41.136 27.6743C40.4968 27.6743 39.9428 27.5337 39.4741 27.2525C39.0053 26.9712 38.6417 26.5778 38.3832 26.0721C38.1275 25.5664 37.9996 24.9755 37.9996 24.2993C37.9996 23.6232 38.1275 23.0309 38.3832 22.5224C38.6417 22.0138 39.0053 21.619 39.4741 21.3377C39.9428 21.0565 40.4968 20.9158 41.136 20.9158C41.7752 20.9158 42.3292 21.0565 42.7979 21.3377C43.2667 21.619 43.6289 22.0138 43.8846 22.5224C44.1431 23.0309 44.2724 23.6232 44.2724 24.2993C44.2724 24.9755 44.1431 25.5664 43.8846 26.0721C43.6289 26.5778 43.2667 26.9712 42.7979 27.2525C42.3292 27.5337 41.7752 27.6743 41.136 27.6743ZM41.1445 26.4386C41.4911 26.4386 41.7809 26.3434 42.0138 26.153C42.2468 25.9599 42.4201 25.7013 42.5337 25.3775C42.6502 25.0536 42.7085 24.6928 42.7085 24.2951C42.7085 23.8945 42.6502 23.5323 42.5337 23.2084C42.4201 22.8817 42.2468 22.6218 42.0138 22.4286C41.7809 22.2354 41.4911 22.1388 41.1445 22.1388C40.7894 22.1388 40.494 22.2354 40.2582 22.4286C40.0252 22.6218 39.8505 22.8817 39.734 23.2084C39.6204 23.5323 39.5636 23.8945 39.5636 24.2951C39.5636 24.6928 39.6204 25.0536 39.734 25.3775C39.8505 25.7013 40.0252 25.9599 40.2582 26.153C40.494 26.3434 40.7894 26.4386 41.1445 26.4386ZM45.5817 27.5465V21.0011H47.0774V22.092H47.1456C47.2649 21.7141 47.4695 21.4229 47.7592 21.2184C48.0518 21.011 48.3857 20.9073 48.7607 20.9073C48.8459 20.9073 48.9411 20.9116 49.0462 20.9201C49.1541 20.9258 49.2436 20.9357 49.3146 20.9499V22.369C49.2493 22.3462 49.1456 22.3263 49.0036 22.3093C48.8643 22.2894 48.7294 22.2795 48.5987 22.2795C48.3175 22.2795 48.0646 22.3405 47.8402 22.4627C47.6186 22.582 47.4439 22.7482 47.3161 22.9613C47.1882 23.1743 47.1243 23.4201 47.1243 23.6985V27.5465H45.5817ZM51.7457 25.4925L51.7415 23.6303H51.9886L54.3409 21.0011H56.1435L53.25 24.2226H52.9304L51.7457 25.4925ZM50.3395 27.5465V18.8192H51.8821V27.5465H50.3395ZM54.4474 27.5465L52.3168 24.5678L53.3565 23.4812L56.2926 27.5465H54.4474ZM62.3448 22.7312L60.9386 22.8846C60.8988 22.7425 60.8292 22.609 60.7298 22.484C60.6332 22.359 60.5025 22.2582 60.3377 22.1815C60.1729 22.1047 59.9712 22.0664 59.7326 22.0664C59.4116 22.0664 59.1417 22.136 58.9229 22.2752C58.707 22.4144 58.6005 22.5948 58.6033 22.8164C58.6005 23.0067 58.6701 23.1616 58.8121 23.2809C58.957 23.4002 59.1957 23.4982 59.5281 23.5749L60.6445 23.8136C61.2638 23.9471 61.7241 24.1587 62.0252 24.4485C62.3292 24.7383 62.4826 25.1175 62.4854 25.5863C62.4826 25.9982 62.3619 26.3618 62.1232 26.6772C61.8874 26.9897 61.5593 27.234 61.1388 27.4101C60.7184 27.5863 60.2354 27.6743 59.69 27.6743C58.8888 27.6743 58.244 27.5067 57.7553 27.1715C57.2667 26.8334 56.9755 26.3633 56.8817 25.761L58.386 25.6161C58.4542 25.9116 58.5991 26.1346 58.8207 26.2851C59.0423 26.4357 59.3306 26.511 59.6857 26.511C60.0522 26.511 60.3462 26.4357 60.5678 26.2851C60.7923 26.1346 60.9045 25.9485 60.9045 25.7269C60.9045 25.5394 60.832 25.3846 60.6871 25.2624C60.5451 25.1403 60.3235 25.0465 60.0224 24.9812L58.9059 24.7468C58.2781 24.6161 57.8136 24.3959 57.5124 24.0863C57.2113 23.7738 57.0621 23.3789 57.065 22.9016C57.0621 22.4982 57.1715 22.1488 57.3931 21.8533C57.6175 21.555 57.9286 21.3249 58.3263 21.163C58.7269 20.9982 59.1886 20.9158 59.7113 20.9158C60.4783 20.9158 61.082 21.0792 61.5224 21.4059C61.9656 21.7326 62.2397 22.1743 62.3448 22.7312ZM70.0494 21.0011V22.1942H66.18V21.0011H70.0494ZM67.1474 27.5465V20.3832C67.1474 19.9428 67.2383 19.5763 67.4201 19.2837C67.6048 18.9911 67.8519 18.7724 68.1616 18.6275C68.4712 18.4826 68.815 18.4101 69.1928 18.4101C69.4599 18.4101 69.6971 18.4315 69.9045 18.4741C70.1119 18.5167 70.2653 18.555 70.3647 18.5891L70.0579 19.7823C69.9925 19.7624 69.9102 19.7425 69.8107 19.7226C69.7113 19.6999 69.6005 19.6886 69.4783 19.6886C69.1914 19.6886 68.9883 19.7582 68.869 19.8974C68.7525 20.0337 68.6942 20.2297 68.6942 20.4854V27.5465H67.1474ZM73.8665 27.6743C73.2273 27.6743 72.6733 27.5337 72.2045 27.2525C71.7358 26.9712 71.3722 26.5778 71.1136 26.0721C70.858 25.5664 70.7301 24.9755 70.7301 24.2993C70.7301 23.6232 70.858 23.0309 71.1136 22.5224C71.3722 22.0138 71.7358 21.619 72.2045 21.3377C72.6733 21.0565 73.2273 20.9158 73.8665 20.9158C74.5057 20.9158 75.0597 21.0565 75.5284 21.3377C75.9972 21.619 76.3594 22.0138 76.6151 22.5224C76.8736 23.0309 77.0028 23.6232 77.0028 24.2993C77.0028 24.9755 76.8736 25.5664 76.6151 26.0721C76.3594 26.5778 75.9972 26.9712 75.5284 27.2525C75.0597 27.5337 74.5057 27.6743 73.8665 27.6743ZM73.875 26.4386C74.2216 26.4386 74.5114 26.3434 74.7443 26.153C74.9773 25.9599 75.1506 25.7013 75.2642 25.3775C75.3807 25.0536 75.4389 24.6928 75.4389 24.2951C75.4389 23.8945 75.3807 23.5323 75.2642 23.2084C75.1506 22.8817 74.9773 22.6218 74.7443 22.4286C74.5114 22.2354 74.2216 22.1388 73.875 22.1388C73.5199 22.1388 73.2244 22.2354 72.9886 22.4286C72.7557 22.6218 72.581 22.8817 72.4645 23.2084C72.3509 23.5323 72.294 23.8945 72.294 24.2951C72.294 24.6928 72.3509 25.0536 72.4645 25.3775C72.581 25.7013 72.7557 25.9599 72.9886 26.153C73.2244 26.3434 73.5199 26.4386 73.875 26.4386ZM78.3121 27.5465V21.0011H79.8079V22.092H79.8761C79.9954 21.7141 80.1999 21.4229 80.4897 21.2184C80.7823 21.011 81.1161 20.9073 81.4911 20.9073C81.5763 20.9073 81.6715 20.9116 81.7766 20.9201C81.8846 20.9258 81.9741 20.9357 82.0451 20.9499V22.369C81.9798 22.3462 81.8761 22.3263 81.734 22.3093C81.5948 22.2894 81.4599 22.2795 81.3292 22.2795C81.0479 22.2795 80.7951 22.3405 80.5707 22.4627C80.3491 22.582 80.1744 22.7482 80.0465 22.9613C79.9187 23.1743 79.8548 23.4201 79.8548 23.6985V27.5465H78.3121ZM0.792614 45.0011V36.0011H2.30966V37.0834H2.39915C2.47869 36.9243 2.59091 36.7553 2.7358 36.5763C2.88068 36.3945 3.0767 36.2397 3.32386 36.1118C3.57102 35.9812 3.88636 35.9158 4.26989 35.9158C4.77557 35.9158 5.23153 36.0451 5.63778 36.3036C6.04688 36.5593 6.37074 36.9386 6.60938 37.4414C6.85085 37.9414 6.97159 38.555 6.97159 39.2823C6.97159 40.0011 6.85369 40.6118 6.6179 41.1147C6.3821 41.6175 6.06108 42.0011 5.65483 42.2653C5.24858 42.5295 4.78835 42.6616 4.27415 42.6616C3.89915 42.6616 3.58807 42.5991 3.34091 42.4741C3.09375 42.3491 2.89489 42.1985 2.74432 42.0224C2.59659 41.8434 2.48153 41.6743 2.39915 41.5153H2.33523V45.0011H0.792614ZM2.3054 39.2738C2.3054 39.6971 2.36506 40.0678 2.48438 40.386C2.60653 40.7042 2.78125 40.9528 3.00852 41.1317C3.23864 41.3079 3.51705 41.3959 3.84375 41.3959C4.18466 41.3959 4.47017 41.305 4.70028 41.1232C4.9304 40.9386 5.10369 40.6871 5.22017 40.369C5.33949 40.0479 5.39915 39.6829 5.39915 39.2738C5.39915 38.8675 5.34091 38.5067 5.22443 38.1914C5.10795 37.8761 4.93466 37.6289 4.70455 37.4499C4.47443 37.2709 4.1875 37.1815 3.84375 37.1815C3.5142 37.1815 3.23438 37.2681 3.00426 37.4414C2.77415 37.6147 2.59943 37.8576 2.48011 38.1701C2.36364 38.4826 2.3054 38.8505 2.3054 39.2738ZM8.29261 42.5465V36.0011H9.78835V37.092H9.85653C9.97585 36.7141 10.1804 36.4229 10.4702 36.2184C10.7628 36.011 11.0966 35.9073 11.4716 35.9073C11.5568 35.9073 11.652 35.9116 11.7571 35.9201C11.8651 35.9258 11.9545 35.9357 12.0256 35.9499V37.369C11.9602 37.3462 11.8565 37.3263 11.7145 37.3093C11.5753 37.2894 11.4403 37.2795 11.3097 37.2795C11.0284 37.2795 10.7756 37.3405 10.5511 37.4627C10.3295 37.582 10.1548 37.7482 10.027 37.9613C9.89915 38.1743 9.83523 38.4201 9.83523 38.6985V42.5465H8.29261ZM15.636 42.6743C14.9968 42.6743 14.4428 42.5337 13.9741 42.2525C13.5053 41.9712 13.1417 41.5778 12.8832 41.0721C12.6275 40.5664 12.4996 39.9755 12.4996 39.2993C12.4996 38.6232 12.6275 38.0309 12.8832 37.5224C13.1417 37.0138 13.5053 36.619 13.9741 36.3377C14.4428 36.0565 14.9968 35.9158 15.636 35.9158C16.2752 35.9158 16.8292 36.0565 17.2979 36.3377C17.7667 36.619 18.1289 37.0138 18.3846 37.5224C18.6431 38.0309 18.7724 38.6232 18.7724 39.2993C18.7724 39.9755 18.6431 40.5664 18.3846 41.0721C18.1289 41.5778 17.7667 41.9712 17.2979 42.2525C16.8292 42.5337 16.2752 42.6743 15.636 42.6743ZM15.6445 41.4386C15.9911 41.4386 16.2809 41.3434 16.5138 41.153C16.7468 40.9599 16.9201 40.7013 17.0337 40.3775C17.1502 40.0536 17.2085 39.6928 17.2085 39.2951C17.2085 38.8945 17.1502 38.5323 17.0337 38.2084C16.9201 37.8817 16.7468 37.6218 16.5138 37.4286C16.2809 37.2354 15.9911 37.1388 15.6445 37.1388C15.2894 37.1388 14.994 37.2354 14.7582 37.4286C14.5252 37.6218 14.3505 37.8817 14.234 38.2084C14.1204 38.5323 14.0636 38.8945 14.0636 39.2951C14.0636 39.6928 14.1204 40.0536 14.234 40.3775C14.3505 40.7013 14.5252 40.9599 14.7582 41.153C14.994 41.3434 15.2894 41.4386 15.6445 41.4386ZM20.0817 42.5465V36.0011H21.5561V37.1133H21.6328C21.7692 36.7383 21.995 36.4457 22.3104 36.2354C22.6257 36.0224 23.0021 35.9158 23.4396 35.9158C23.8828 35.9158 24.2564 36.0238 24.5604 36.2397C24.8672 36.4528 25.0831 36.744 25.2081 37.1133H25.2763C25.4212 36.7496 25.6655 36.4599 26.0092 36.244C26.3558 36.0252 26.7663 35.9158 27.2408 35.9158C27.843 35.9158 28.3345 36.1062 28.7152 36.4868C29.0959 36.8675 29.2862 37.4229 29.2862 38.153V42.5465H27.7393V38.3917C27.7393 37.9854 27.6314 37.6886 27.4155 37.5011C27.1996 37.3107 26.9354 37.2155 26.6229 37.2155C26.2507 37.2155 25.9595 37.332 25.7493 37.565C25.5419 37.7951 25.4382 38.0948 25.4382 38.4641V42.5465H23.9254V38.3278C23.9254 37.9897 23.8232 37.7198 23.6186 37.5181C23.4169 37.3164 23.1527 37.2155 22.826 37.2155C22.6044 37.2155 22.4027 37.2724 22.2209 37.386C22.0391 37.4968 21.8942 37.6545 21.7862 37.859C21.6783 38.0607 21.6243 38.2965 21.6243 38.5664V42.5465H20.0817ZM30.8512 45.0011V36.0011H32.3683V37.0834H32.4577C32.5373 36.9243 32.6495 36.7553 32.7944 36.5763C32.9393 36.3945 33.1353 36.2397 33.3825 36.1118C33.6296 35.9812 33.945 35.9158 34.3285 35.9158C34.8342 35.9158 35.2901 36.0451 35.6964 36.3036C36.1055 36.5593 36.4293 36.9386 36.668 37.4414C36.9094 37.9414 37.0302 38.555 37.0302 39.2823C37.0302 40.0011 36.9123 40.6118 36.6765 41.1147C36.4407 41.6175 36.1197 42.0011 35.7134 42.2653C35.3072 42.5295 34.8469 42.6616 34.3327 42.6616C33.9577 42.6616 33.6467 42.5991 33.3995 42.4741C33.1523 42.3491 32.9535 42.1985 32.8029 42.0224C32.6552 41.8434 32.5401 41.6743 32.4577 41.5153H32.3938V45.0011H30.8512ZM32.364 39.2738C32.364 39.6971 32.4237 40.0678 32.543 40.386C32.6651 40.7042 32.8398 40.9528 33.0671 41.1317C33.2972 41.3079 33.5756 41.3959 33.9023 41.3959C34.2433 41.3959 34.5288 41.305 34.7589 41.1232C34.989 40.9386 35.1623 40.6871 35.2788 40.369C35.3981 40.0479 35.4577 39.6829 35.4577 39.2738C35.4577 38.8675 35.3995 38.5067 35.283 38.1914C35.1665 37.8761 34.9933 37.6289 34.7631 37.4499C34.533 37.2709 34.2461 37.1815 33.9023 37.1815C33.5728 37.1815 33.293 37.2681 33.0629 37.4414C32.8327 37.6147 32.658 37.8576 32.5387 38.1701C32.4222 38.4826 32.364 38.8505 32.364 39.2738ZM41.6197 36.0011V37.1942H37.8569V36.0011H41.6197ZM38.7859 34.4329H40.3285V40.5778C40.3285 40.7851 40.3597 40.9442 40.4222 41.055C40.4876 41.163 40.5728 41.2368 40.6779 41.2766C40.783 41.3164 40.8995 41.3363 41.0273 41.3363C41.1239 41.3363 41.212 41.3292 41.2915 41.315C41.3739 41.3008 41.4364 41.288 41.479 41.2766L41.739 42.4826C41.6566 42.511 41.5387 42.5422 41.3853 42.5763C41.2347 42.6104 41.0501 42.6303 40.8313 42.636C40.445 42.6474 40.0969 42.5891 39.7873 42.4613C39.4776 42.3306 39.2319 42.1289 39.0501 41.8562C38.8711 41.5834 38.783 41.2425 38.7859 40.8334V34.4329ZM49.1548 36.0011V37.1942H45.392V36.0011H49.1548ZM46.321 34.4329H47.8636V40.5778C47.8636 40.7851 47.8949 40.9442 47.9574 41.055C48.0227 41.163 48.108 41.2368 48.2131 41.2766C48.3182 41.3164 48.4347 41.3363 48.5625 41.3363C48.6591 41.3363 48.7472 41.3292 48.8267 41.315C48.9091 41.3008 48.9716 41.288 49.0142 41.2766L49.2741 42.4826C49.1918 42.511 49.0739 42.5422 48.9205 42.5763C48.7699 42.6104 48.5852 42.6303 48.3665 42.636C47.9801 42.6474 47.6321 42.5891 47.3224 42.4613C47.0128 42.3306 46.767 42.1289 46.5852 41.8562C46.4063 41.5834 46.3182 41.2425 46.321 40.8334V34.4329ZM53.2298 42.6743C52.5906 42.6743 52.0366 42.5337 51.5678 42.2525C51.0991 41.9712 50.7354 41.5778 50.4769 41.0721C50.2212 40.5664 50.0934 39.9755 50.0934 39.2993C50.0934 38.6232 50.2212 38.0309 50.4769 37.5224C50.7354 37.0138 51.0991 36.619 51.5678 36.3377C52.0366 36.0565 52.5906 35.9158 53.2298 35.9158C53.869 35.9158 54.4229 36.0565 54.8917 36.3377C55.3604 36.619 55.7227 37.0138 55.9783 37.5224C56.2369 38.0309 56.3661 38.6232 56.3661 39.2993C56.3661 39.9755 56.2369 40.5664 55.9783 41.0721C55.7227 41.5778 55.3604 41.9712 54.8917 42.2525C54.4229 42.5337 53.869 42.6743 53.2298 42.6743ZM53.2383 41.4386C53.5849 41.4386 53.8746 41.3434 54.1076 41.153C54.3406 40.9599 54.5138 40.7013 54.6275 40.3775C54.744 40.0536 54.8022 39.6928 54.8022 39.2951C54.8022 38.8945 54.744 38.5323 54.6275 38.2084C54.5138 37.8817 54.3406 37.6218 54.1076 37.4286C53.8746 37.2354 53.5849 37.1388 53.2383 37.1388C52.8832 37.1388 52.5877 37.2354 52.3519 37.4286C52.119 37.6218 51.9442 37.8817 51.8278 38.2084C51.7141 38.5323 51.6573 38.8945 51.6573 39.2951C51.6573 39.6928 51.7141 40.0536 51.8278 40.3775C51.9442 40.7013 52.119 40.9599 52.3519 41.153C52.5877 41.3434 52.8832 41.4386 53.2383 41.4386ZM59.0817 40.4925L59.0774 38.6303H59.3246L61.6768 36.0011H63.4794L60.5859 39.2226H60.2663L59.0817 40.4925ZM57.6754 42.5465V33.8192H59.218V42.5465H57.6754ZM61.7834 42.5465L59.6527 39.5678L60.6925 38.4812L63.6286 42.5465H61.7834ZM67.1357 42.6743C66.4794 42.6743 65.9126 42.538 65.4354 42.2653C64.9609 41.9897 64.5959 41.6005 64.3402 41.0976C64.0845 40.592 63.9567 39.9968 63.9567 39.3121C63.9567 38.6388 64.0845 38.0479 64.3402 37.5394C64.5987 37.028 64.9595 36.6303 65.4226 36.3462C65.8857 36.0593 66.4297 35.9158 67.0547 35.9158C67.4581 35.9158 67.8388 35.9812 68.1967 36.1118C68.5575 36.2397 68.8757 36.4386 69.1513 36.7084C69.4297 36.9783 69.6484 37.3221 69.8075 37.7397C69.9666 38.1545 70.0462 38.6488 70.0462 39.2226V39.6957H64.6811V38.6559H68.5675C68.5646 38.3604 68.5007 38.0976 68.3757 37.8675C68.2507 37.6346 68.076 37.4513 67.8516 37.3178C67.63 37.1843 67.3714 37.1175 67.076 37.1175C66.7607 37.1175 66.4837 37.1942 66.245 37.3476C66.0064 37.4982 65.8203 37.6971 65.6868 37.9442C65.5561 38.1886 65.4893 38.457 65.4865 38.7496V39.6573C65.4865 40.038 65.5561 40.3647 65.6953 40.6374C65.8345 40.9073 66.0291 41.1147 66.2791 41.2596C66.5291 41.4016 66.8217 41.4726 67.157 41.4726C67.3814 41.4726 67.5845 41.4414 67.7663 41.3789C67.9482 41.3136 68.1058 41.2184 68.2393 41.0934C68.3729 40.9684 68.4737 40.8136 68.5419 40.6289L69.9822 40.7908C69.8913 41.1715 69.718 41.5039 69.4624 41.788C69.2095 42.0692 68.8857 42.288 68.4908 42.4442C68.0959 42.5976 67.6442 42.6743 67.1357 42.6743ZM72.8938 38.7113V42.5465H71.3512V36.0011H72.8256V37.1133H72.9023C73.0529 36.7468 73.293 36.4556 73.6225 36.2397C73.9549 36.0238 74.3654 35.9158 74.854 35.9158C75.3058 35.9158 75.6992 36.0124 76.0344 36.2056C76.3725 36.3988 76.6339 36.6786 76.8185 37.0451C77.006 37.4116 77.0984 37.8562 77.0955 38.3789V42.5465H75.5529V38.6175C75.5529 38.18 75.4393 37.8377 75.212 37.5905C74.9876 37.3434 74.6765 37.2198 74.2788 37.2198C74.0089 37.2198 73.7688 37.2795 73.5586 37.3988C73.3512 37.5153 73.1879 37.6843 73.0685 37.9059C72.9521 38.1275 72.8938 38.3959 72.8938 38.7113ZM83.837 37.7312L82.4308 37.8846C82.391 37.7425 82.3214 37.609 82.2219 37.484C82.1254 37.359 81.9947 37.2582 81.8299 37.1815C81.6651 37.1047 81.4634 37.0664 81.2248 37.0664C80.9038 37.0664 80.6339 37.136 80.4151 37.2752C80.1992 37.4144 80.0927 37.5948 80.0955 37.8164C80.0927 38.0067 80.1623 38.1616 80.3043 38.2809C80.4492 38.4002 80.6879 38.4982 81.0202 38.5749L82.1367 38.8136C82.756 38.9471 83.2163 39.1587 83.5174 39.4485C83.8214 39.7383 83.9748 40.1175 83.9776 40.5863C83.9748 40.9982 83.854 41.3618 83.6154 41.6772C83.3796 41.9897 83.0515 42.234 82.631 42.4101C82.2106 42.5863 81.7276 42.6743 81.1822 42.6743C80.381 42.6743 79.7362 42.5067 79.2475 42.1715C78.7589 41.8334 78.4677 41.3633 78.3739 40.761L79.8782 40.6161C79.9464 40.9116 80.0913 41.1346 80.3129 41.2851C80.5344 41.4357 80.8228 41.511 81.1779 41.511C81.5444 41.511 81.8384 41.4357 82.06 41.2851C82.2844 41.1346 82.3967 40.9485 82.3967 40.7269C82.3967 40.5394 82.3242 40.3846 82.1793 40.2624C82.0373 40.1403 81.8157 40.0465 81.5146 39.9812L80.3981 39.7468C79.7702 39.6161 79.3058 39.3959 79.0046 39.0863C78.7035 38.7738 78.5543 38.3789 78.5572 37.9016C78.5543 37.4982 78.6637 37.1488 78.8853 36.8533C79.1097 36.555 79.4208 36.3249 79.8185 36.163C80.2191 35.9982 80.6808 35.9158 81.2035 35.9158C81.9705 35.9158 82.5742 36.0792 83.0146 36.4059C83.4577 36.7326 83.7319 37.1743 83.837 37.7312Z" fill="#A1A1A1"/>
</svg>
